<svg width="107" height="107" fill="none" xmlns="http://www.w3.org/2000/svg"><g clip-path="url(#clip0)" fill="#000" fill-opacity=".4"><path d="M96.965 66.875a3.34 3.34 0 01-2.778-5.198L99.64 53.5l-5.452-8.176a3.345 3.345 0 01.927-4.637 3.34 3.34 0 014.637.927l6.687 10.031a3.343 3.343 0 010 3.71l-6.687 10.031a3.345 3.345 0 01-2.787 1.49zm-86.929 0a3.345 3.345 0 01-2.787-1.489L.562 55.355a3.343 3.343 0 010-3.71l6.687-10.03a3.34 3.34 0 014.637-.928 3.341 3.341 0 01.927 4.637L7.361 53.5l5.452 8.177a3.345 3.345 0 01-2.777 5.198zM72.45 98.084H34.552c-6.763 0-12.26-5.498-12.26-12.26V21.176c0-6.763 5.497-12.26 12.26-12.26H72.45c6.764 0 12.26 5.497 12.26 12.26v64.646c0 6.764-5.496 12.26-12.26 12.26zm-37.897-82.48a5.58 5.58 0 00-5.572 5.573v64.646a5.58 5.58 0 005.572 5.573H72.45a5.58 5.58 0 005.573-5.573V21.177a5.58 5.58 0 00-5.573-5.572H34.553z"/></g><defs><clipPath id="clip0"><path fill="#fff" d="M0 0h107v107H0z"/></clipPath></defs></svg>