<svg width="158" height="158" fill="none" xmlns="http://www.w3.org/2000/svg"><path d="M38 20H0V0h32l6 20z" fill="#4E588B"/><path d="M158 40l-11 79H58L47 81V40h111z" fill="#FF3D58"/><path d="M158 40l-11 79h-44V40h55z" fill="#D20173"/><path d="M69 56h68v9H69v-9zm2 18h62v9H71v-9zm3 19h57v9H74v-9z" fill="#FF7D3E"/><path d="M103 93h29v9h-29v-9zm0-19h31v9h-31v-9zm0-18h34v9h-34v-9z" fill="#FF3D58"/><path d="M146 130v9H64c-6.86 0-13.029-5.206-14-12L32 0h9l6 39 11 79 1 8c.326 2.28 2.7 4 5 4h82z" fill="#D6D6EA"/><path d="M103 130h44v9h-44v-9z" fill="#A9AACA"/><path d="M78 158c5.523 0 10-4.477 10-10s-4.477-10-10-10-10 4.477-10 10 4.477 10 10 10z" fill="#4E588B"/><path d="M127 158c5.523 0 10-4.477 10-10s-4.477-10-10-10-10 4.477-10 10 4.477 10 10 10z" fill="#293E65"/><path d="M133 20v9l-30 27-30-27v-9h10V0h40v20h10z" fill="#BDE953"/><path d="M133 20v9l-30 27V0h20v20h10z" fill="#00CD72"/></svg>