<svg width="158" height="158" fill="none" xmlns="http://www.w3.org/2000/svg"><g clip-path="url(#clip0)"><path d="M115 28H92V5c0-2.592-1.412-5-4-5H14C6.329 0 0 6.316 0 14v130c0 7.684 6.329 14 14 14h92c7.672 0 14-6.316 14-14V32c0-2.593-2.412-4-5-4z" fill="#CAE8F9"/><path d="M120 32v112c0 7.684-6.338 14-14 14H60V0h28c2.585 0 4 2.408 4 5v23h23c2.585 0 5 1.407 5 4z" fill="#B7E0F6"/><path d="M120 37H88c-2.556 0-5-2.444-5-5V0h10c3.631 0 7.434 1.43 10 4l13 13c2.565 2.575 4 6.378 4 10v10z" fill="#CAE8F9"/><path d="M154 50c-5.087-5.219-14.912-5.219-20 0l-4 5-4 3c-1.818 1.74-1.818 4.26 0 6l7 7 6 7c1.635 1.83 5.365 1.83 7 0l3-4 5-4c5.36-5.127 5.36-14.873 0-20z" fill="#1689FC"/><path d="M101 103l-9-10c-.182-.182-.818-.182-1 0-.548.546-.818 1.362-1 2l-7 20c-.639 1.821-.185 3.906 1 5 1.276 1.184 3.359 1.637 5 1l20-7c.638-.183 1.453-.454 2-1 .182-.182.182-.818 0-1-3.008-3.097-6.9-5.903-10-9z" fill="#FEDBAB"/><path d="M87 55H24c-6.108 0-6.108-9 0-9h63c6.109 0 6.109 9 0 9zM68 73H24c-6.063 0-6.063-9 0-9h44c6.063 0 6.063 9 0 9zm0 19H24c-6.063 0-6.063-9 0-9h44c6.063 0 6.063 9 0 9zm0 18H24c-6.063 0-6.063-9 0-9h44c6.063 0 6.063 9 0 9zm19 29H61c-6.089 0-6.089-9 0-9h26c6.09 0 6.09 9 0 9z" fill="#17ACE8"/><path d="M101 102c3.177 3.039 6.917 5.961 10 9 .187.179.187.821 0 1-.56.536-1.345.821-2 1l-20 7c-1.682.625-3.692.162-5-1l17-17z" fill="#FEC478"/><path d="M154 70l-5 4-3 4c-1.648 1.823-4.352 1.823-6 0l-7-7 21-21c5.404 5.104 5.404 14.896 0 20z" fill="#136EF1"/><path d="M150 74l-3 3c-18.475 18.383-12.39 12.39-29 29 0 .186-6.907 6.906-7 7-.559.56-1.346.813-2 1L90 95c.187-.653.44-1.44 1-2 .093-.093 6.813-7 7-7 12.13-12.13 6.325-6.138 29-29l3-3 20 20z" fill="#FD003A"/><path d="M149 74l-3 3c-18.333 18.377-12.518 12.395-29 29 0 .186-6.907 6.906-7 7-.555.56-1.351.813-2 1l-9-10 40-40 10 10z" fill="#E50027"/><path d="M69 110h-9v-9h9c6.346 0 6.346 9 0 9zm0-18h-9v-9h9c6.346 0 6.346 9 0 9zm0-19h-9v-9h9c6.346 0 6.346 9 0 9zm18 66H60v-9h27c6.132 0 6.132 9 0 9zm0-84H60v-9h27c6.132 0 6.132 9 0 9z" fill="#1689FC"/></g><defs><clipPath id="clip0"><path fill="#fff" d="M0 0h158v158H0z"/></clipPath></defs></svg>