<svg width="158" height="158" fill="none" xmlns="http://www.w3.org/2000/svg"><path d="M79 0C45.953 0 19 26.857 19 60c0 13.146 4.153 25.539 12 36l44 60c.645.925 2.707 2 4 2 1.385 0 3.354-1.167 4-2 .184-.278 44.63-60.444 45-61 .092 0 0 .092 0 0 7.2-10.184 11-22.41 11-35 0-33.143-26.953-60-60-60zm0 93c-17.815 0-32-15.132-32-33 0-17.867 14.185-32 32-32 17.815 0 32 14.133 32 32 0 17.868-14.185 33-32 33z" fill="#FD003A"/><path d="M79 0v28c17.815 0 32 14.133 32 32 0 17.868-14.185 33-32 33v65c1.385 0 3.354-1.167 4-2 .184-.278 44.63-60.444 45-61 .092 0 0 .092 0 0 7.2-10.184 11-22.41 11-35 0-33.144-26.953-60-60-60z" fill="#DD0030"/></svg>