<svg width="148" height="148" fill="none" xmlns="http://www.w3.org/2000/svg"><path d="M0 32h148v116H0V32z" fill="#C1C8D1"/><path d="M0 32h148C129.538 12.313 103.217 0 74 0S18.462 12.313 0 32z" fill="#8892A0"/><path d="M25 67h99v81H25V67z" fill="#E7E4DD"/><path d="M25 118h30v30H25v-30z" fill="#976947"/><path d="M25 57h99v20H25V57z" fill="#758190"/><path d="M25 64h99v5H25v-5z" fill="#A8B0BC"/><path d="M129 57H20V47c0-2.763 2.263-5 5-5h99c2.737 0 5 2.237 5 5v10z" fill="#243242"/><path d="M49 20h49v5H49v-5zm0-10h49v5H49v-5z" fill="#A8B0BC"/><path d="M25 89h30v30H25V89z" fill="#C18E59"/><path d="M35 89v10h10V89m-10 29v10h10v-10" fill="#F7D881"/><path d="M54 118h30v30H54v-30z" fill="#C18E59"/><path d="M64 118v10h10v-10m-42-12h15v5H32v-5zm30 30h15v5H62v-5zm-30 0h15v5H32v-5z" fill="#F7D881"/><path d="M148 81h-15v25h15" fill="#C66B60"/><path d="M10 81h5v5h-5v-5zm0 10h5v5h-5v-5zm0 10h5v5h-5v-5z" fill="#758190"/><path d="M141 91h7v5h-7v-5z" fill="#F7D881"/></svg>