<svg width="1920" height="612" fill="none" xmlns="http://www.w3.org/2000/svg"><path fill-rule="evenodd" clip-rule="evenodd" d="M1373.07 133.665h20v9.765h-20v-9.765z" fill="#FF7590" fill-opacity=".8"/><path fill-rule="evenodd" clip-rule="evenodd" d="M1371.66 124.969h22.82v9.761h-22.82v-9.761z" fill="#FF7590" fill-opacity=".8"/><path fill-rule="evenodd" clip-rule="evenodd" d="M1372.36 110.062h21.41v24.668h-21.41v-24.668z" fill="#FF7590" fill-opacity=".8"/><path fill-rule="evenodd" clip-rule="evenodd" d="M1374.66 107.756h16.81v26.974h-16.81v-26.974z" fill="#FF7590" fill-opacity=".8"/><path fill-rule="evenodd" clip-rule="evenodd" d="M1375.72 106.864h14.69v27.866h-14.69v-27.866z" fill="#FF7590" fill-opacity=".8"/><path fill-rule="evenodd" clip-rule="evenodd" d="M1378.55 94.266h9.03v40.464h-9.03V94.266z" fill="#FF7590" fill-opacity=".8"/><path fill-rule="evenodd" clip-rule="evenodd" d="M1377.32 94.265h11.5v1.777h-11.5v-1.777z" fill="#FF7590" fill-opacity=".8"/><path fill-rule="evenodd" clip-rule="evenodd" d="M1379.79 70.481h6.55v25.561h-6.55v-25.56z" fill="#FF7590" fill-opacity=".8"/><path fill-rule="evenodd" clip-rule="evenodd" d="M1378.55 69.239h9.03v1.777h-9.03v-1.777z" fill="#FF7590" fill-opacity=".8"/><path fill-rule="evenodd" clip-rule="evenodd" d="M1381.21 46.344h3.72v25.557h-3.72V46.344z" fill="#FF7590" fill-opacity=".8"/><path fill-rule="evenodd" clip-rule="evenodd" d="M1379.62 45.1h6.9v1.776h-6.9v-1.777z" fill="#FF7590" fill-opacity=".8"/><path fill-rule="evenodd" clip-rule="evenodd" d="M1381.91 29.663h2.31v25.554h-2.31V29.663z" fill="#FF7590" fill-opacity=".8"/><path fill-rule="evenodd" clip-rule="evenodd" d="M1381.21 28.775h3.72v1.773h-3.72v-1.773z" fill="#FF7590" fill-opacity=".8"/><path fill-rule="evenodd" clip-rule="evenodd" d="M1382.45 13.511h1.24v25.557h-1.24V13.511z" fill="#FF7590" fill-opacity=".8"/><path fill-rule="evenodd" clip-rule="evenodd" d="M1381.57 12.445h3v1.774h-3v-1.774z" fill="#FF7590" fill-opacity=".8"/><path fill-rule="evenodd" clip-rule="evenodd" d="M1382.8 1.26h.53v25.561h-.53V1.261z" fill="#FF7590" fill-opacity=".8"/><path fill-rule="evenodd" clip-rule="evenodd" d="M1382.01.01h2.11v1.773h-2.11V.01zm-4.78 141.954h11.67v50.003h-11.67v-50.003z" fill="#FF7590" fill-opacity=".8"/><path fill-rule="evenodd" clip-rule="evenodd" d="M1376.08 155.706h13.97v4.679h-13.97v-4.679zm0 15.955h13.97v4.679h-13.97v-4.679zm-.66 15.129h15.29v4.683h-15.29v-4.683z" fill="#FF7590" fill-opacity=".8"/><path fill-rule="evenodd" clip-rule="evenodd" d="M1373.79 188.767h18.55v4.679h-18.55v-4.679z" fill="#FF7590" fill-opacity=".8"/><path fill-rule="evenodd" clip-rule="evenodd" d="M1374.9 191.953h16.33v17.258h-16.33v-17.258z" fill="#FF7590" fill-opacity=".8"/><path fill-rule="evenodd" clip-rule="evenodd" d="M1373.67 203.465h18.8v4.682h-18.8v-4.682z" fill="#FF7590" fill-opacity=".8"/><path fill-rule="evenodd" clip-rule="evenodd" d="M1372.13 205.943H1394v11.412h-21.87v-11.412z" fill="#FF7590" fill-opacity=".8"/><path fill-rule="evenodd" clip-rule="evenodd" d="M1373.67 214.444h18.8v4.682h-18.8v-4.682z" fill="#FF7590" fill-opacity=".8"/><path fill-rule="evenodd" clip-rule="evenodd" d="M1374.9 217.277h16.33v4.682h-16.33v-4.682zm0 40.095h16.33v5.313h-16.33v-5.313zm0 9.918h16.33v5.313h-16.33v-5.313z" fill="#FF7590" fill-opacity=".8"/><path fill-rule="evenodd" clip-rule="evenodd" d="M1375.43 271.717h15.27v5.313h-15.27v-5.313zm-27.24 236.352l34.88-93.685 34.88 93.685h-69.76z" fill="#FF7590" fill-opacity=".8"/><path fill-rule="evenodd" clip-rule="evenodd" d="M1358.47 485.886l24.6-93.689 24.59 93.689h-49.19z" fill="#FF7590" fill-opacity=".8"/><path fill-rule="evenodd" clip-rule="evenodd" d="M1365.2 452.02h35.73v2.8h-35.73v-2.8zm5.54-10.105l6.88-232.148h10.89l6.89 232.148h-24.66z" fill="#FF7590" fill-opacity=".8"/><path fill-rule="evenodd" clip-rule="evenodd" d="M1370.03 400.159h26.07v2.804h-26.07v-2.804zm2.08-55.013h21.92v2.8h-21.92v-2.8zm0-6.799h21.92v2.8h-21.92v-2.8zm-1.9-5.693h25.72v2.804h-25.72v-2.804z" fill="#FF7590" fill-opacity=".8"/><path fill-rule="evenodd" clip-rule="evenodd" d="M1368 330.201h30.13v3.834H1368v-3.834zm1.27-13.512h27.6v5.604h-27.6v-5.604z" fill="#FF7590" fill-opacity=".8"/><path fill-rule="evenodd" clip-rule="evenodd" d="M1370.84 320.164h24.45v11.456h-24.45v-11.456zm-251.56-169.306c-7.43 0-13.49-4.638-13.49-10.324 0-10.059 13.69-11.005 11.8-27.252.67-.356.99-.431 1.69-.431s1.03.075 1.69.431c-1.89 16.247 11.81 17.193 11.81 27.252 0 5.686-6.06 10.324-13.5 10.324z" fill="#FF7590" fill-opacity=".8"/><path fill-rule="evenodd" clip-rule="evenodd" d="M1119.24 110c1.13 0 2.04.912 2.04 2.031 0 1.122-.91 2.034-2.04 2.034-1.11 0-2.02-.912-2.02-2.034a2.03 2.03 0 012.02-2.031z" fill="#FF7590" fill-opacity=".8"/><path fill-rule="evenodd" clip-rule="evenodd" d="M1118.89 89.64h.71v20.956h-.71V89.639z" fill="#FF7590" fill-opacity=".8"/><path fill-rule="evenodd" clip-rule="evenodd" d="M1116.19 93.052v-.716h6.11v.716h-6.11zm-4.21 57.544h14.61v21.316h-14.61v-21.316z" fill="#FF7590" fill-opacity=".8"/><path fill-rule="evenodd" clip-rule="evenodd" d="M1110.98 156.012h16.61v2.932h-16.61v-2.932zm-.53-3.993h17.67v1.688h-17.67v-1.688zm-2.3-2.814h22.27v1.569h-22.27v-1.569zm2.83 17.646h16.61v2.933h-16.61v-2.933zm0 5.599h16.61v2.929h-16.61v-2.929z" fill="#FF7590" fill-opacity=".8"/><path fill-rule="evenodd" clip-rule="evenodd" d="M1109.87 168.804h18.83v4.885h-18.83v-4.885zm2.79 6.133h13.24v5.377h-13.24v-5.377z" fill="#FF7590" fill-opacity=".8"/><path fill-rule="evenodd" clip-rule="evenodd" d="M1111.42 179.398h15.73l22.81 71.471h-61.35l22.81-71.471zm-27.7 72.458h71.12v3.106h-71.12v-3.106z" fill="#FF7590" fill-opacity=".8"/><path fill-rule="evenodd" clip-rule="evenodd" d="M1085.12 251.857h68.32v5.926h-68.32v-5.926z" fill="#FF7590" fill-opacity=".8"/><path fill-rule="evenodd" clip-rule="evenodd" d="M1086.36 251.857h65.85v8.605h-65.85v-8.605z" fill="#FF7590" fill-opacity=".8"/><path fill-rule="evenodd" clip-rule="evenodd" d="M1081.75 251.857l5.62-1.549h63.82l5.63 1.549v1.411h-75.07v-1.411zm6.45 7.612h62.16v11.463h-62.16v-11.463z" fill="#FF7590" fill-opacity=".8"/><path fill-rule="evenodd" clip-rule="evenodd" d="M1085.24 269.432h68.08v48.545h-68.08v-48.545z" fill="#FF7590" fill-opacity=".8"/><path fill-rule="evenodd" clip-rule="evenodd" d="M1086.38 300.129c3.87 0 7.04 4.472 7.04 9.962 0 5.485-3.17 9.961-7.04 9.961-3.88 0-7.04-4.476-7.04-9.961 0-5.49 3.16-9.962 7.04-9.962z" fill="#FF7590" fill-opacity=".8"/><path fill-rule="evenodd" clip-rule="evenodd" d="M1087.9 288.022c3.87 0 7.03 4.475 7.03 9.965 0 5.482-3.16 9.957-7.03 9.957-3.88 0-7.04-4.475-7.04-9.957 0-5.49 3.16-9.965 7.04-9.965z" fill="#FF7590" fill-opacity=".8"/><path fill-rule="evenodd" clip-rule="evenodd" d="M1089.41 275.919c3.88 0 7.04 4.472 7.04 9.961 0 5.482-3.16 9.961-7.04 9.961s-7.03-4.479-7.03-9.961c0-5.489 3.15-9.961 7.03-9.961zm62.78 24.21c-3.88 0-7.04 4.472-7.04 9.962 0 5.485 3.16 9.961 7.04 9.961 3.87 0 7.03-4.476 7.03-9.961 0-5.49-3.16-9.962-7.03-9.962z" fill="#FF7590" fill-opacity=".8"/><path fill-rule="evenodd" clip-rule="evenodd" d="M1150.66 288.022c-3.87 0-7.03 4.475-7.03 9.965 0 5.482 3.16 9.957 7.03 9.957 3.88 0 7.04-4.475 7.04-9.957 0-5.49-3.16-9.965-7.04-9.965z" fill="#FF7590" fill-opacity=".8"/><path fill-rule="evenodd" clip-rule="evenodd" d="M1149.15 275.919c-3.88 0-7.04 4.472-7.04 9.961 0 5.482 3.16 9.961 7.04 9.961s7.03-4.479 7.03-9.961c0-5.489-3.15-9.961-7.03-9.961zm-70.39 41.231h81.04v54.204h-81.04V317.15z" fill="#FF7590" fill-opacity=".8"/><path fill-rule="evenodd" clip-rule="evenodd" d="M1075.93 330.142h7.46v22.377h-7.46v-22.377z" fill="#FF7590" fill-opacity=".8"/><path fill-rule="evenodd" clip-rule="evenodd" d="M1073.88 337.987h7.45v5.015h-7.45v-5.015zm0-9.388h7.45v5.014h-7.45v-5.014zm-1.8-8.231l10.02-5.53v7.459h-10.02v-1.929z" fill="#FF7590" fill-opacity=".8"/><path fill-rule="evenodd" clip-rule="evenodd" d="M1075.55 320.88h7.06v7.72l-7.06-3.476v-4.244zM959.672 479.484h309.188v47.961H959.672v-47.961z" fill="#FF7590" fill-opacity=".8"/><path fill-rule="evenodd" clip-rule="evenodd" d="M1237.52 471.707h29.52v13.426h-29.52v-13.426z" fill="#FF7590" fill-opacity=".8"/><path fill-rule="evenodd" clip-rule="evenodd" d="M1236.11 463.699h34.76v9.758h-34.76v-9.758z" fill="#FF7590" fill-opacity=".8"/><path fill-rule="evenodd" clip-rule="evenodd" d="M1236.11 463.964h36.28l-16.41-6.35h-19.87v6.35zm-8.55-210.206c1.83 0 3.33 1.502 3.33 3.343 0 1.835-1.5 3.337-3.33 3.337a3.347 3.347 0 01-3.34-3.337c0-1.841 1.5-3.343 3.34-3.343z" fill="#FF7590" fill-opacity=".8"/><path fill-rule="evenodd" clip-rule="evenodd" d="M1227.2 234.708h.71v20.956h-.71v-20.956z" fill="#FF7590" fill-opacity=".8"/><path fill-rule="evenodd" clip-rule="evenodd" d="M1224.51 238.118v-.715h6.09v.715h-6.09zm2.68 104.629c18.34 0 32.85-1.4 33.29-18.491.41-15.736-28.08-27.073-30.39-53.559-1.25-.353-1.61-.309-2.9-.309-1.28 0-1.64-.044-2.89.309-2.32 26.486-30.8 37.823-30.4 53.559.45 17.091 14.96 18.491 33.29 18.491z" fill="#FF7590" fill-opacity=".8"/><path fill-rule="evenodd" clip-rule="evenodd" d="M1225.57 259.136h3.46l.7 11.734h-5.08l.92-11.734zm25.84 80.862h-48.43v5.469h48.43v-5.469z" fill="#FF7590" fill-opacity=".8"/><path fill-rule="evenodd" clip-rule="evenodd" d="M1249.77 342.128h-45.15v5.469h45.15v-5.469z" fill="#FF7590" fill-opacity=".8"/><path fill-rule="evenodd" clip-rule="evenodd" d="M1248.71 345.012h-43.03v8.51l2.73 5.472h37.56l2.74-5.472v-8.51z" fill="#FF7590" fill-opacity=".8"/><path fill-rule="evenodd" clip-rule="evenodd" d="M1245.68 358.086h-36.97v36.779h36.97v-36.779zm8.49 44.923h-38.01v4.72h38.01v-4.72z" fill="#FF7590" fill-opacity=".8"/><path fill-rule="evenodd" clip-rule="evenodd" d="M1255.46 398.405h-39.3v4.72h39.3v-4.72zm-2.12 8.85h-40.95l3.35 37.173h40.95l-3.35-37.173zm-14.47 38.352h18.48v15.695h-18.48v-15.695z" fill="#FF7590" fill-opacity=".8"/><path fill-rule="evenodd" clip-rule="evenodd" d="M1234.64 443.485h28.12v2.827h-28.12v-2.827z" fill="#FF7590" fill-opacity=".8"/><path fill-rule="evenodd" clip-rule="evenodd" d="M1232.52 444.899h28.12l-2.96 4.367h-28.12l2.96-4.367zm17.06-62.096c3.05 0 5.55 4.092 5.55 9.11 0 5.022-2.5 9.117-5.55 9.117-3.07 0-5.56-4.095-5.56-9.117 0-5.018 2.49-9.11 5.56-9.11z" fill="#FF7590" fill-opacity=".8"/><path fill-rule="evenodd" clip-rule="evenodd" d="M1238.12 369.438h6.6l6.03 16.837h-6.61l-6.02-16.837zm20.15 24.384h-43.42v1.858h43.42v-1.858z" fill="#FF7590" fill-opacity=".8"/><path fill-rule="evenodd" clip-rule="evenodd" d="M1258.27 394.632h-43.42l-2.56 4.18h43.41l2.57-4.18zm-47.95-15.871c10.66 0 19.09-.817 19.35-10.751.24-9.148-16.32-15.742-17.67-31.142-.73-.203-.94-.179-1.68-.179-.75 0-.96-.024-1.68.179-1.35 15.4-17.91 21.994-17.68 31.142.26 9.934 8.7 10.751 19.36 10.751zm-45.88-131.875c1.84 0 3.34 1.502 3.34 3.336 0 1.842-1.5 3.343-3.34 3.343a3.347 3.347 0 01-3.34-3.343c0-1.834 1.5-3.336 3.34-3.336z" fill="#FF7590" fill-opacity=".8"/><path fill-rule="evenodd" clip-rule="evenodd" d="M1164.08 227.835h.72v20.956h-.72v-20.956z" fill="#FF7590" fill-opacity=".8"/><path fill-rule="evenodd" clip-rule="evenodd" d="M1161.39 231.246v-.719h6.1v.719h-6.1zm2.69 104.627c18.34 0 32.85-1.4 33.29-18.488.41-15.735-28.08-27.076-30.39-53.559-1.25-.353-1.61-.312-2.9-.312-1.28 0-1.64-.041-2.89.312-2.31 26.483-30.8 37.824-30.39 53.559.44 17.088 14.95 18.488 33.28 18.488z" fill="#FF7590" fill-opacity=".8"/><path fill-rule="evenodd" clip-rule="evenodd" d="M1162.46 252.26h3.47l.69 11.738h-5.07l.91-11.738zm29.17 79.883h-55.09v5.468h55.09v-5.468z" fill="#FF7590" fill-opacity=".8"/><path fill-rule="evenodd" clip-rule="evenodd" d="M1190.08 335.93h-52v4.268h52v-4.268z" fill="#FF7590" fill-opacity=".8"/><path fill-rule="evenodd" clip-rule="evenodd" d="M1188.4 339.855h-48.64v41.869h48.64v-41.869z" fill="#FF7590" fill-opacity=".8"/><path fill-rule="evenodd" clip-rule="evenodd" d="M1181.22 357.373h6.6l6.03 16.834h-6.6l-6.03-16.834zM958.06 479.708l15.643-9.771 15.643 9.771H958.06z" fill="#FF7590" fill-opacity=".8"/><path fill-rule="evenodd" clip-rule="evenodd" d="M968.318 480.135l17.344-38.831L1003 480.135h-34.682zm66.512-230.431c1.84 0 3.33 1.502 3.33 3.339 0 1.841-1.49 3.34-3.33 3.34a3.352 3.352 0 01-3.34-3.34 3.353 3.353 0 013.34-3.339z" fill="#FF7590" fill-opacity=".8"/><path fill-rule="evenodd" clip-rule="evenodd" d="M1034.47 230.653h.72v20.959h-.72v-20.959z" fill="#FF7590" fill-opacity=".8"/><path fill-rule="evenodd" clip-rule="evenodd" d="M1031.78 234.062v-.715h6.1v.715h-6.1zm2.69 94.988c14.1 0 25.27-5.449 25.61-18.593.31-12.108-21.6-25.331-23.39-45.707-.96-.275-1.23-.241-2.22-.241-.99 0-1.26-.034-2.23.241-1.78 20.376-23.69 33.599-23.38 45.707.34 13.144 11.5 18.593 25.61 18.593z" fill="#FF7590" fill-opacity=".8"/><path fill-rule="evenodd" clip-rule="evenodd" d="M1033.22 255.854h2.67l.53 9.029h-3.9l.7-9.029zm-20.66 69.29h43.83v3.885h-43.83v-3.885z" fill="#FF7590" fill-opacity=".8"/><path fill-rule="evenodd" clip-rule="evenodd" d="M1013.98 327.573h40.98v3.885h-40.98v-3.885z" fill="#FF7590" fill-opacity=".8"/><path fill-rule="evenodd" clip-rule="evenodd" d="M1014.77 330.484h39.41v3.889h-39.41v-3.889z" fill="#FF7590" fill-opacity=".8"/><path fill-rule="evenodd" clip-rule="evenodd" d="M1015.56 332.43h37.82v28.043h-37.82V332.43z" fill="#FF7590" fill-opacity=".8"/><path fill-rule="evenodd" clip-rule="evenodd" d="M1014.77 339.229h39.41v2.305h-39.41v-2.305zm-6.66 17.966h52.73v29.056h-52.73v-29.056z" fill="#FF7590" fill-opacity=".8"/><path fill-rule="evenodd" clip-rule="evenodd" d="M1006.77 364.012c3.9 0 7.06 6.385 7.06 14.213 0 7.825-3.16 14.21-7.06 14.21-3.88 0-7.05-6.385-7.05-14.21 0-7.828 3.17-14.213 7.05-14.213zm82.36 20.058c14.1 0 25.27-5.448 25.6-18.593.31-12.107-21.59-25.33-23.38-45.707-.96-.271-1.23-.237-2.22-.237-.99 0-1.26-.034-2.23.237-1.78 20.377-23.69 33.6-23.38 45.707.34 13.145 11.51 18.593 25.61 18.593z" fill="#FF7590" fill-opacity=".8"/><path fill-rule="evenodd" clip-rule="evenodd" d="M996.376 380.148h76.184v1.648h-76.184v-1.648z" fill="#FF7590" fill-opacity=".8"/><path fill-rule="evenodd" clip-rule="evenodd" d="M998.043 380.148h72.847v3.017l-2.27 13.07h-68.29l-2.287-13.07v-3.017z" fill="#FF7590" fill-opacity=".8"/><path fill-rule="evenodd" clip-rule="evenodd" d="M1001.54 394.741h65.87v41.621h-65.87v-41.621z" fill="#FF7590" fill-opacity=".8"/><path fill-rule="evenodd" clip-rule="evenodd" d="M1070.89 437.555h-72.847v-.343l2.277-1.485h68.3l2.27 1.485v.343z" fill="#FF7590" fill-opacity=".8"/><path fill-rule="evenodd" clip-rule="evenodd" d="M999.868 436.904h67.532v43.7h-67.532v-43.7z" fill="#FF7590" fill-opacity=".8"/><path fill-rule="evenodd" clip-rule="evenodd" d="M988.895 455.198h31.915v38.783h-31.915v-38.783zm60.375-86.89H1242v124.684h-192.73V368.308zm13.19-8.129h-55.98v-.638l1.74-2.753h52.49l1.75 2.753v.638zm261.41-28.837h7.41l19.52 97.235h-46.3l19.37-97.235zm-64.64 176.554h103.19v19.549h-103.19v-19.549z" fill="#FF7590" fill-opacity=".8"/><path fill-rule="evenodd" clip-rule="evenodd" d="M1292.33 466.363h70.09v61.082h-70.09v-61.082z" fill="#FF7590" fill-opacity=".8"/><path fill-rule="evenodd" clip-rule="evenodd" d="M1272.18 488.381l25.08-8.643v47.707h-25.08v-39.064zm26.11-59.054h58.16v56.966h-58.16v-56.966z" fill="#FF7590" fill-opacity=".8"/><path fill-rule="evenodd" clip-rule="evenodd" d="M1296.01 462.865h62.72l5.32 4.323h-73.36l5.32-4.323zm5.05-39.919c-1.52 0-2.77 3.373-2.77 7.51 0 4.136 1.25 7.513 2.77 7.513 1.53 0 2.77-3.377 2.77-7.513 0-4.137-1.24-7.51-2.77-7.51zm52.62 0c-1.53 0-2.77 3.373-2.77 7.51 0 4.136 1.24 7.513 2.77 7.513s2.77-3.377 2.77-7.513c0-4.137-1.24-7.51-2.77-7.51z" fill="#FF7590" fill-opacity=".8"/><path fill-rule="evenodd" clip-rule="evenodd" d="M1301.37 422.329h52v63.964h-52v-63.964zm23.66-104.409h5.25v16.759h-5.25V317.92z" fill="#FF7590" fill-opacity=".8"/><path fill-rule="evenodd" clip-rule="evenodd" d="M1324.02 327.427h7.27v2.085h-7.27v-2.085zm0-8.287h7.27v2.082h-7.27v-2.082zm3.63-.593c2.79 0 4.99-1.075 5.06-3.669.06-2.39-4.26-5.001-4.62-9.025-.18-.051-.25-.044-.44-.044-.2 0-.25-.007-.44.044-.35 4.024-4.68 6.635-4.61 9.025.07 2.594 2.27 3.669 5.05 3.669zm.01-17.43c.62 0 1.12.508 1.12 1.129 0 .62-.5 1.129-1.12 1.129-.63 0-1.14-.509-1.14-1.129 0-.621.51-1.129 1.14-1.129z" fill="#FF7590" fill-opacity=".8"/><path fill-rule="evenodd" clip-rule="evenodd" d="M1327.44 288.914h.43v12.477h-.43v-12.477z" fill="#FF7590" fill-opacity=".8"/><path fill-rule="evenodd" clip-rule="evenodd" d="M1325.83 290.945v-.427h3.64v.427h-3.64zm1.5 11.927h.65l.08 3.16h-.81l.08-3.16zm515.11 142.393h48.67v74.715h-48.67v-74.715z" fill="#FF7590" fill-opacity=".8"/><path fill-rule="evenodd" clip-rule="evenodd" d="M1906.52 502.927h-53.53v30.86h53.53v-30.86zm-150.07-63.348h41.38v77.963h-41.38v-77.963z" fill="#FF7590" fill-opacity=".8"/><path fill-rule="evenodd" clip-rule="evenodd" d="M1792.96 477.752h27.57v18.675h-27.57v-18.675zm6.36-34.261h-14.17v1.461h14.17v-1.461zm-1.39-5.465h-36.53l3.03 4.373h36.53l-3.03-4.373zm94.8 6.378h-28.53v1.457h28.53v-1.457zm0 28.248h-28.53v1.458h28.53v-1.458zm13.52 28.979h-36.53l3.02 4.374h36.53l-3.02-4.374zm-459.52-132.678c.3-2.038 2.47-4.004 5.55-4.052h195.01c3.08.048 5.25 2.014 5.55 4.052v102.666h-206.11V368.953z" fill="#FF7590" fill-opacity=".8"/><path fill-rule="evenodd" clip-rule="evenodd" d="M1541.29 340.557h17v32.596h-17v-32.596z" fill="#FF7590" fill-opacity=".8"/><path fill-rule="evenodd" clip-rule="evenodd" d="M1549.43 304.554h.72v39.584h-.72v-39.584z" fill="#FF7590" fill-opacity=".8"/><path fill-rule="evenodd" clip-rule="evenodd" d="M1549.58 305.761c4.49-.624 5.5 4.933 9.06 3.367v7.13c-3.36-.38-5.97-6.412-9.06-3.364v-7.133zm-60.42 55.213h121.26v6.449h-121.26v-6.449zm52.89-23.481h1.85v3.709h-1.85v-3.709z" fill="#FF7590" fill-opacity=".8"/><path fill-rule="evenodd" clip-rule="evenodd" d="M1542.05 339.856h3.7v1.346h-3.7v-1.346zm15.48-2.363h-1.85v3.709h1.85v-3.709z" fill="#FF7590" fill-opacity=".8"/><path fill-rule="evenodd" clip-rule="evenodd" d="M1557.53 339.856h-3.7v1.346h3.7v-1.346zm-73.97 17.179h6.62v9.493h-6.62v-9.493zm-5.01 5.194h-2.32v3.76h2.32v-3.76zm-12.7 0h-2.33v3.76h2.33v-3.76zm-11.27.75h-2.33v3.763h2.33v-3.763zm-6.45 2.59h-1.4v3.76h1.4v-3.76zm167.88-8.534h-6.62v9.493h6.62v-9.493zm5.01 5.194h2.33v3.76h-2.33v-3.76zm12.71 0h2.32v3.76h-2.32v-3.76zm11.27.75h2.32v3.763H1645v-3.763zm6.45 2.59h1.39v3.76h-1.39v-3.76zm-226.74 94.33h250.16v66.31h-250.16v-66.31z" fill="#FF7590" fill-opacity=".8"/><path fill-rule="evenodd" clip-rule="evenodd" d="M1671.95 455.271h50.22v70.938h-50.22v-70.938zm0-2.682h50.22v2.014h-50.22v-2.014z" fill="#FF7590" fill-opacity=".8"/><path fill-rule="evenodd" clip-rule="evenodd" d="M1672.66 452.588h48.8v3.278h-48.8v-3.278zm-295.25 2.683h50.22v70.938h-50.22v-70.938zm0-2.682h50.22v2.014h-50.22v-2.014z" fill="#FF7590" fill-opacity=".8"/><path fill-rule="evenodd" clip-rule="evenodd" d="M1378.12 452.588h48.8v3.278h-48.8v-3.278zM13.804 443.155h49.848v90.871H13.804v-90.871z" fill="#FF7590" fill-opacity=".8"/><path fill-rule="evenodd" clip-rule="evenodd" d="M4.875 473.694h20.831v59.587H4.875v-59.587zM70.348 357.5h55.801v160.142H70.348V357.5zm142.107 58.841h29.761v95.34h-29.761v-95.34z" fill="#FF7590" fill-opacity=".8"/><path fill-rule="evenodd" clip-rule="evenodd" d="M230.311 441.664h17.857v37.244h-17.857v-37.244zm192.698-90.121h39.431v70.759h-39.431v-70.759zm103.42 11.171h46.127v161.63h-46.127v-161.63zm65.556 96.76h309.35v67.711h-309.35v-67.711z" fill="#FF7590" fill-opacity=".8"/><path fill-rule="evenodd" clip-rule="evenodd" d="M670.913 291.902h83.269v187.885h-83.269V291.902z" fill="#FF7590" fill-opacity=".8"/><path fill-rule="evenodd" clip-rule="evenodd" d="M693.168 233.826h38.761v74.943h-38.761v-74.943z" fill="#FF7590" fill-opacity=".8"/><path fill-rule="evenodd" clip-rule="evenodd" d="M708.024 216.4h9.046v24.537h-9.046V216.4zm42.141 44.594a2.19 2.19 0 012.184 2.187 2.188 2.188 0 01-2.184 2.183 2.189 2.189 0 01-2.185-2.183c0-1.204.983-2.187 2.185-2.187z" fill="#FF7590" fill-opacity=".8"/><path fill-rule="evenodd" clip-rule="evenodd" d="M750.964 263.326l.82 10.079 1.622 19.933h-6.482l1.622-19.933.82-10.079h1.598z" fill="#FF7590" fill-opacity=".8"/><path fill-rule="evenodd" clip-rule="evenodd" d="M745.844 285.077h8.643v9.517h-8.643v-9.517zm-70.911-24.083a2.185 2.185 0 010 4.37 2.186 2.186 0 010-4.37z" fill="#FF7590" fill-opacity=".8"/><path fill-rule="evenodd" clip-rule="evenodd" d="M675.732 263.326l.819 10.079 1.619 19.933h-6.479l1.623-19.933.816-10.079h1.602z" fill="#FF7590" fill-opacity=".8"/><path fill-rule="evenodd" clip-rule="evenodd" d="M670.61 285.077h8.643v9.517h-8.643v-9.517zm17.178.62h49.517v23.072h-49.517v-23.072zm42.487-62.184a.725.725 0 11-.003 1.45.725.725 0 01.003-1.45z" fill="#FF7590" fill-opacity=".8"/><path fill-rule="evenodd" clip-rule="evenodd" d="M730.539 224.286l.275 3.349.538 6.622h-2.154l.539-6.622.274-3.349h.528z" fill="#FF7590" fill-opacity=".8"/><path fill-rule="evenodd" clip-rule="evenodd" d="M728.84 231.514h2.872v3.16h-2.872v-3.16zm-34.014-8.001a.726.726 0 11-.001 1.451.726.726 0 01.001-1.451z" fill="#FF7590" fill-opacity=".8"/><path fill-rule="evenodd" clip-rule="evenodd" d="M695.09 224.286l.275 3.349.538 6.622h-2.154l.542-6.622.271-3.349h.528z" fill="#FF7590" fill-opacity=".8"/><path fill-rule="evenodd" clip-rule="evenodd" d="M693.392 231.514h2.871v3.16h-2.871v-3.16zm4.537-.268h29.237v9.69h-29.237v-9.69z" fill="#FF7590" fill-opacity=".8"/><path fill-rule="evenodd" clip-rule="evenodd" d="M700.801 229.815h23.49v11.121h-23.49v-11.121z" fill="#FF7590" fill-opacity=".8"/><path fill-rule="evenodd" clip-rule="evenodd" d="M712.55 217.848c4.66 0 8.467 4.2 8.467 9.35 0 5.147-3.807 9.348-8.467 9.348-4.667 0-8.47-4.201-8.47-9.348 0-5.15 3.803-9.35 8.47-9.35z" fill="#FF7590" fill-opacity=".8"/><path fill-rule="evenodd" clip-rule="evenodd" d="M713.346 164.355l.823 18.16 1.618 35.922h-6.478l1.618-35.922.82-18.16h1.599zm-.801-9.347l.671 3.394 3.434-.41-3.018 1.688 1.45 3.143-2.537-2.349-2.537 2.349 1.45-3.143-3.018-1.688 3.431.41.674-3.394z" fill="#FF7590" fill-opacity=".8"/><path fill-rule="evenodd" clip-rule="evenodd" d="M714.815 154.889a5.102 5.102 0 012.818 4.557c0 2.807-2.283 5.096-5.087 5.096s-5.087-2.289-5.087-5.096a5.105 5.105 0 012.814-4.557c-1.287.848-2.154 2.394-2.154 4.154 0 2.664 1.988 4.838 4.427 4.838 2.438 0 4.43-2.174 4.43-4.838 0-1.76-.871-3.306-2.161-4.154z" fill="#FF7590" fill-opacity=".8"/><path fill-rule="evenodd" clip-rule="evenodd" d="M712.244 158.178l.302-5.903.301 5.903h-.603zm1.538 5.74l1.548 1.672-2.337-1.16.789-.512zm-2.412 0l-1.548 1.672 2.337-1.16-.789-.512zm-83.6 201.342h71.473v101.066H627.77V365.26zm20.909-52.892c.904 0 1.642.74 1.642 1.645s-.738 1.644-1.642 1.644a1.647 1.647 0 01-1.643-1.644c0-.905.738-1.645 1.643-1.645z" fill="#FF7590" fill-opacity=".8"/><path fill-rule="evenodd" clip-rule="evenodd" d="M649.281 314.126l.617 7.588 1.219 15.006h-4.877l1.219-15.006.617-7.588h1.205z" fill="#FF7590" fill-opacity=".8"/><path fill-rule="evenodd" clip-rule="evenodd" d="M645.424 330.502h6.506v7.164h-6.506v-7.164zm-28.651-18.134c.908 0 1.646.74 1.646 1.645s-.738 1.644-1.646 1.644a1.647 1.647 0 01-1.642-1.644c0-.905.738-1.645 1.642-1.645z" fill="#FF7590" fill-opacity=".8"/><path fill-rule="evenodd" clip-rule="evenodd" d="M617.376 314.126l.62 7.588 1.219 15.006h-4.88l1.219-15.006.62-7.588h1.202z" fill="#FF7590" fill-opacity=".8"/><path fill-rule="evenodd" clip-rule="evenodd" d="M613.521 330.502h6.506v7.164h-6.506v-7.164z" fill="#FF7590" fill-opacity=".8"/><path fill-rule="evenodd" clip-rule="evenodd" d="M613.257 336.024h38.937v130.302h-38.937V336.024z" fill="#FF7590" fill-opacity=".8"/><path fill-rule="evenodd" clip-rule="evenodd" d="M611.872 335.753h41.704v1.601h-41.704v-1.601zm0 47.334h41.704v1.597h-41.704v-1.597z" fill="#FF7590" fill-opacity=".8"/><path fill-rule="evenodd" clip-rule="evenodd" d="M618.818 332.817h7.024v-2.689l6.029-3.319h1.71l6.032 3.319v2.689h7.02v4.841h-27.815v-4.841zm179.487-20.449c.907 0 1.646.74 1.646 1.645s-.739 1.644-1.646 1.644a1.647 1.647 0 01-1.643-1.644c0-.905.738-1.645 1.643-1.645z" fill="#FF7590" fill-opacity=".8"/><path fill-rule="evenodd" clip-rule="evenodd" d="M798.908 314.126l.616 7.588 1.219 15.006h-4.877l1.219-15.006.62-7.588h1.203z" fill="#FF7590" fill-opacity=".8"/><path fill-rule="evenodd" clip-rule="evenodd" d="M795.05 330.502h6.509v7.164h-6.509v-7.164zm-28.649-18.134c.905 0 1.643.74 1.643 1.645s-.738 1.644-1.643 1.644a1.647 1.647 0 01-1.642-1.644c0-.905.738-1.645 1.642-1.645z" fill="#FF7590" fill-opacity=".8"/><path fill-rule="evenodd" clip-rule="evenodd" d="M767.001 314.126l.62 7.588 1.219 15.006h-4.877l1.219-15.006.616-7.588h1.203z" fill="#FF7590" fill-opacity=".8"/><path fill-rule="evenodd" clip-rule="evenodd" d="M763.15 330.502h6.503v7.164h-6.503v-7.164z" fill="#FF7590" fill-opacity=".8"/><path fill-rule="evenodd" clip-rule="evenodd" d="M762.883 336.024h38.937v130.302h-38.937V336.024z" fill="#FF7590" fill-opacity=".8"/><path fill-rule="evenodd" clip-rule="evenodd" d="M761.497 335.753h41.707v1.601h-41.707v-1.601zm0 47.334h41.707v1.597h-41.707v-1.597z" fill="#FF7590" fill-opacity=".8"/><path fill-rule="evenodd" clip-rule="evenodd" d="M768.447 332.817h7.021v-2.689l6.032-3.319h1.707l6.031 3.319v2.689h7.021v4.841h-27.812v-4.841zm-48.901 32.443h71.477v101.066h-71.477V365.26zm103.963 87.667h74.911v11.951h-74.911v-11.951z" fill="#FF7590" fill-opacity=".8"/><path fill-rule="evenodd" clip-rule="evenodd" d="M829.832 433.663h57.398v27.069h-57.398v-27.069z" fill="#FF7590" fill-opacity=".8"/><path fill-rule="evenodd" clip-rule="evenodd" d="M828.131 433.663h60.798v1.217h-60.798v-1.217z" fill="#FF7590" fill-opacity=".8"/><path fill-rule="evenodd" clip-rule="evenodd" d="M829.832 418.297h57.398v16.583h-57.398v-16.583z" fill="#FF7590" fill-opacity=".8"/><path fill-rule="evenodd" clip-rule="evenodd" d="M828.131 417.32h60.798v1.221h-60.798v-1.221zm58.334-9.904a.624.624 0 11-.002 1.248.624.624 0 01.002-1.248z" fill="#FF7590" fill-opacity=".8"/><path fill-rule="evenodd" clip-rule="evenodd" d="M886.691 408.086l.234 2.878.464 5.689h-1.853l.468-5.689.23-2.878h.457z" fill="#FF7590" fill-opacity=".8"/><path fill-rule="evenodd" clip-rule="evenodd" d="M885.229 414.297h2.468v2.716h-2.468v-2.716zM882 407.416a.624.624 0 11-.002 1.248.624.624 0 01.002-1.248z" fill="#FF7590" fill-opacity=".8"/><path fill-rule="evenodd" clip-rule="evenodd" d="M882.227 408.086l.234 2.878.464 5.689h-1.853l.464-5.689.234-2.878h.457z" fill="#FF7590" fill-opacity=".8"/><path fill-rule="evenodd" clip-rule="evenodd" d="M880.765 414.297h2.469v2.716h-2.469v-2.716zm-17.022-6.881a.624.624 0 11-.002 1.248.624.624 0 01.002-1.248z" fill="#FF7590" fill-opacity=".8"/><path fill-rule="evenodd" clip-rule="evenodd" d="M863.969 408.086l.234 2.878.464 5.689h-1.853l.464-5.689.234-2.878h.457z" fill="#FF7590" fill-opacity=".8"/><path fill-rule="evenodd" clip-rule="evenodd" d="M862.507 414.297h2.469v2.716h-2.469v-2.716zm-3.231-6.881a.625.625 0 11.003 1.247.625.625 0 01-.003-1.247z" fill="#FF7590" fill-opacity=".8"/><path fill-rule="evenodd" clip-rule="evenodd" d="M859.505 408.086l.234 2.878.464 5.689h-1.852l.46-5.689.237-2.878h.457z" fill="#FF7590" fill-opacity=".8"/><path fill-rule="evenodd" clip-rule="evenodd" d="M858.043 414.297h2.469v2.716h-2.469v-2.716zm-22.166-6.881a.624.624 0 11-.002 1.248.624.624 0 01.002-1.248z" fill="#FF7590" fill-opacity=".8"/><path fill-rule="evenodd" clip-rule="evenodd" d="M836.104 408.086l.237 2.878.46 5.689h-1.849l.464-5.689.234-2.878h.454z" fill="#FF7590" fill-opacity=".8"/><path fill-rule="evenodd" clip-rule="evenodd" d="M834.644 414.297h2.465v2.716h-2.465v-2.716zm-3.231-6.881a.624.624 0 11-.002 1.248.624.624 0 01.002-1.248z" fill="#FF7590" fill-opacity=".8"/><path fill-rule="evenodd" clip-rule="evenodd" d="M831.644 408.086l.234 2.878.46 5.689h-1.849l.461-5.689.237-2.878h.457z" fill="#FF7590" fill-opacity=".8"/><path fill-rule="evenodd" clip-rule="evenodd" d="M830.177 414.297h2.469v2.716h-2.469v-2.716zm38.819 3.689l5.683-5.685 5.676 5.685h-11.359zm-29.083 0l7.265-5.685 7.261 5.685h-14.526zM636.226 462.02h54.675v71.691h-54.675V462.02z" fill="#FF7590" fill-opacity=".8"/><path fill-rule="evenodd" clip-rule="evenodd" d="M602.379 486.794h60.534v46.917h-60.534v-46.917zm-36.451-15.637h30.592v62.554h-30.592v-62.554z" fill="#FF7590" fill-opacity=".8"/><path fill-rule="evenodd" clip-rule="evenodd" d="M574.692 489.521h23.47v39.387h-23.47v-39.387z" fill="#EF6B84"/><path fill-rule="evenodd" clip-rule="evenodd" d="M594.024 519.232h39.341v9.676h-39.341v-9.676z" fill="#EF6B84"/><path fill-rule="evenodd" clip-rule="evenodd" d="M607.824 493.666h18.641v30.402h-18.641v-30.402zm32.446 18.656h18.637v16.586H640.27v-16.586z" fill="#EF6B84"/><path fill-rule="evenodd" clip-rule="evenodd" d="M674.09 503.341h-22.085v25.567h22.085v-25.567zm1016.4-324.491l.92 4.662 4.71-.56-4.14 2.319 2 4.316-3.49-3.227-3.49 3.231 1.99-4.32-4.14-2.319 4.71.56.93-4.662z" fill="#EF6B84"/><path fill-rule="evenodd" clip-rule="evenodd" d="M1693.61 178.687a7.014 7.014 0 013.87 6.262c0 3.852-3.14 6.998-6.99 6.998s-6.99-3.146-6.99-6.998a7.014 7.014 0 013.87-6.262c-1.77 1.167-2.97 3.286-2.97 5.703 0 3.662 2.74 6.649 6.09 6.649 3.35 0 6.08-2.987 6.08-6.649 0-2.417-1.19-4.536-2.96-5.703z" fill="#EF6B84"/><path fill-rule="evenodd" clip-rule="evenodd" d="M1690.07 183.203l.42-8.106.41 8.106h-.83zm-2.09 45.747l1.67-37.817h1.67l1.68 37.817h-5.02z" fill="#EF6B84"/><path fill-rule="evenodd" clip-rule="evenodd" d="M1692.19 191.089l2.12 2.299-3.21-1.594 1.09-.705zm-3.31 0l-2.13 2.299 3.21-1.594-1.08-.705zm-2.18 40.153h7.58v5.55h-7.58v-5.55z" fill="#EF6B84"/><path fill-rule="evenodd" clip-rule="evenodd" d="M1687.87 233.213h5.24v6.208h-5.24v-6.208zm-1.39-4.307h8.01v.655h-8.01v-.655z" fill="#EF6B84"/><path fill-rule="evenodd" clip-rule="evenodd" d="M1685.32 229.415h10.34v.657h-10.34v-.657z" fill="#EF6B84"/><path fill-rule="evenodd" clip-rule="evenodd" d="M1686.12 229.415h8.73v1.898h-8.73v-1.898zm-.37 12.415h9.47v5.987h-9.47v-5.987z" fill="#EF6B84"/><path fill-rule="evenodd" clip-rule="evenodd" d="M1687.5 245.19h5.97v5.55h-5.97v-5.55zm-4.15-6.281h14.28v1.902l-2.41 1.824h-9.47l-2.4-1.824v-1.902zm-1.74 15.558h17.76v2.045h-17.76v-2.045z" fill="#EF6B84"/><path fill-rule="evenodd" clip-rule="evenodd" d="M1679.85 256.365h21.27v2.041h-21.27v-2.041z" fill="#EF6B84"/><path fill-rule="evenodd" clip-rule="evenodd" d="M1680.87 257.677h19.23v2.045h-19.23v-2.045z" fill="#EF6B84"/><path fill-rule="evenodd" clip-rule="evenodd" d="M1681.46 258.922h18.06v11.609h-18.06v-11.609zm.65-4.018l8.38-8.689 8.37 8.689h-16.75zm-6.4 19.238h29.56v21.377h-29.56v-21.377z" fill="#EF6B84"/><path fill-rule="evenodd" clip-rule="evenodd" d="M1674.8 270.043h31.37v4.784h-31.37v-4.784zm-10.7 43.177h52.77v57.187h-52.77V313.22z" fill="#EF6B84"/><path fill-rule="evenodd" clip-rule="evenodd" d="M1663.52 312.322h53.94v1.742h-53.94v-1.742z" fill="#EF6B84"/><path fill-rule="evenodd" clip-rule="evenodd" d="M1662.59 311.163h55.8v1.742h-55.8v-1.742z" fill="#EF6B84"/><path fill-rule="evenodd" clip-rule="evenodd" d="M1664.64 309.071h51.69v3.834h-51.69v-3.834z" fill="#EF6B84"/><path fill-rule="evenodd" clip-rule="evenodd" d="M1671.71 300.011h37.55v12.894h-37.55v-12.894z" fill="#EF6B84"/><path fill-rule="evenodd" clip-rule="evenodd" d="M1674.14 295.247h32.69v12.894h-32.69v-12.894z" fill="#EF6B84"/><path fill-rule="evenodd" clip-rule="evenodd" d="M1672.55 297.339h35.88v3.255h-35.88v-3.255z" fill="#EF6B84"/><path fill-rule="evenodd" clip-rule="evenodd" d="M1671.04 298.966h38.9v1.628h-38.9v-1.628zm-31 72.533h100.9v155.632h-100.9V371.499z" fill="#EF6B84"/><path fill-rule="evenodd" clip-rule="evenodd" d="M1638.56 369.376h103.85v3.296h-103.85v-3.296z" fill="#EF6B84"/><path fill-rule="evenodd" clip-rule="evenodd" d="M1650.82 366.207h11.56v4.207h-11.56v-4.207z" fill="#EF6B84"/><path fill-rule="evenodd" clip-rule="evenodd" d="M1651.89 364.104h9.41v6.31h-9.41v-6.31z" fill="#EF6B84"/><path fill-rule="evenodd" clip-rule="evenodd" d="M1653.34 359.958h6.52v10.456h-6.52v-10.456z" fill="#EF6B84"/><path fill-rule="evenodd" clip-rule="evenodd" d="M1654.23 359.599s-.66-.36.12-.841a3.34 3.34 0 001.14-1.2s-.96-.363-1.14-1.024c-.17-.661-.36-.838-.36-.838s-1.67-1.264-1.02-2.648c.66-1.38 1.56-1.261 2.04-1.2.48.061.84-.241.84-.241s-.78-1.142.06-1.8c.84-.665 1.56-.061 1.5.658-.06.722-.48 1.142-.06 1.203.42.061 1.37.241 1.85.784.49.539 1.27 1.678 1.27 1.678l-1.39 3.306s.25 1.02.31 1.559c.06.543.06 1.085.06 1.085l-1.02.18s.29-1.143.06-1.682c-.24-.542-.61-.363-.61.061 0 .421.25 1.56-.23 1.621-.48.061-3.24.179-3.24.179l-.18-.84z" fill="#EF6B84"/><path fill-rule="evenodd" clip-rule="evenodd" d="M1655.13 353.17l-.3 2.584s-.42-.482-.72-.902c-.3-.42-.54-1.743 0-1.743s1.02.061 1.02.061zm2.58.18s-.12.42.24 1.681l.48 1.682s1.2-1.258.9-2.16c-.31-.905-1.62-1.203-1.62-1.203zm66.13-2.663c.1.146.78-1.132.1-1.62-.69-.492-1.91-.244-1.42.786.49 1.028.59 1.57.2 1.668-.4.099-.98-.05-1.18 1.031-.2 1.078-.49 1.719-.88 2.699-.39.98-.69 1.373-.49 1.668.19.295.92 1.275.92 1.275s.45.641.3 1.081c-.14.441-.1 1.13-.1 1.13l4.56.688 1.42-.983s-.49-1.326-.54-2.553c-.05-1.224.29-2.896.05-3.632-.25-.735-.1-1.42-.05-1.766.05-.346.19-2.306.19-2.994 0-.688.25-1.963-.19-2.407-.44-.441-2.15-.441-1.86.492.3.932.39 1.915.3 2.356-.11.441-.45 1.227-.45 1.668 0 .444-.78.149-.78.149s-.2-.885-.1-.736zm-5.24 15.52h11.56v4.207h-11.56v-4.207z" fill="#EF6B84"/><path fill-rule="evenodd" clip-rule="evenodd" d="M1719.67 364.104h9.41v6.31h-9.41v-6.31z" fill="#EF6B84"/><path fill-rule="evenodd" clip-rule="evenodd" d="M1721.11 359.958h6.53v10.456h-6.53v-10.456zm-7.61-51.939h2.49v1.461h-2.49v-1.461z" fill="#EF6B84"/><path fill-rule="evenodd" clip-rule="evenodd" d="M1713.67 306.554h2.15v2.926h-2.15v-2.926z" fill="#EF6B84"/><path fill-rule="evenodd" clip-rule="evenodd" d="M1713.88 301.133h1.73v8.347h-1.73v-8.347zm.87-1.481a.7.7 0 01.7.705.7.7 0 01-.7.702.708.708 0 01-.71-.702c0-.39.32-.705.71-.705z" fill="#EF6B84"/><path fill-rule="evenodd" clip-rule="evenodd" d="M1713.93 300.862h1.63c.27 0 .48.149.48.325v.38c0 .18-.21.326-.48.326h-1.63c-.26 0-.48-.146-.48-.326v-.38c0-.176.22-.325.48-.325zm0 4.119h1.63c.27 0 .48.149.48.326v.379c0 .18-.21.326-.48.326h-1.63c-.26 0-.48-.146-.48-.326v-.379c0-.177.22-.326.48-.326zm-5.44 3.038h2.48v1.461h-2.48v-1.461z" fill="#EF6B84"/><path fill-rule="evenodd" clip-rule="evenodd" d="M1708.65 306.554h2.16v2.926h-2.16v-2.926z" fill="#EF6B84"/><path fill-rule="evenodd" clip-rule="evenodd" d="M1708.87 301.133h1.72v8.347h-1.72v-8.347zm.86-1.481c.38 0 .7.315.7.705 0 .386-.32.702-.7.702a.708.708 0 01-.71-.702c0-.39.32-.705.71-.705z" fill="#EF6B84"/><path fill-rule="evenodd" clip-rule="evenodd" d="M1708.91 300.862h1.63c.27 0 .49.149.49.325v.38c0 .18-.22.326-.49.326h-1.63c-.26 0-.48-.146-.48-.326v-.38c0-.176.22-.325.48-.325zm0 4.119h1.63c.27 0 .49.149.49.326v.379c0 .18-.22.326-.49.326h-1.63c-.26 0-.48-.146-.48-.326v-.379c0-.177.22-.326.48-.326zm-38.9 3.038h2.48v1.461h-2.48v-1.461z" fill="#EF6B84"/><path fill-rule="evenodd" clip-rule="evenodd" d="M1670.17 306.554h2.16v2.926h-2.16v-2.926z" fill="#EF6B84"/><path fill-rule="evenodd" clip-rule="evenodd" d="M1670.38 301.133h1.74v8.347h-1.74v-8.347zm.87-1.481a.7.7 0 01.7.705.7.7 0 11-1.4 0 .7.7 0 01.7-.705z" fill="#EF6B84"/><path fill-rule="evenodd" clip-rule="evenodd" d="M1670.43 300.862h1.63c.26 0 .49.149.49.325v.38c0 .18-.23.326-.49.326h-1.63c-.26 0-.48-.146-.48-.326v-.38c0-.176.22-.325.48-.325zm0 4.119h1.63c.26 0 .49.149.49.326v.379c0 .18-.23.326-.49.326h-1.63c-.26 0-.48-.146-.48-.326v-.379c0-.177.22-.326.48-.326zm-5.44 3.038h2.48v1.461h-2.48v-1.461z" fill="#EF6B84"/><path fill-rule="evenodd" clip-rule="evenodd" d="M1665.15 306.554h2.16v2.926h-2.16v-2.926z" fill="#EF6B84"/><path fill-rule="evenodd" clip-rule="evenodd" d="M1665.37 301.133h1.72v8.347h-1.72v-8.347zm.86-1.481a.7.7 0 01.7.705.7.7 0 11-1.4 0 .7.7 0 01.7-.705z" fill="#EF6B84"/><path fill-rule="evenodd" clip-rule="evenodd" d="M1665.41 300.862h1.64c.26 0 .47.149.47.325v.38c0 .18-.21.326-.47.326h-1.64c-.26 0-.48-.146-.48-.326v-.38c0-.176.22-.325.48-.325zm0 4.119h1.64c.26 0 .47.149.47.326v.379c0 .18-.21.326-.47.326h-1.64c-.26 0-.48-.146-.48-.326v-.379c0-.177.22-.326.48-.326zm-24.77 60.91h3.44v3.556h-3.44v-3.556z" fill="#EF6B84"/><path fill-rule="evenodd" clip-rule="evenodd" d="M1640.64 363.589h2.81v5.858h-2.81v-5.858z" fill="#EF6B84"/><path fill-rule="evenodd" clip-rule="evenodd" d="M1640.64 360.625h2.4v8.822h-2.4v-8.822z" fill="#EF6B84"/><path fill-rule="evenodd" clip-rule="evenodd" d="M1641.2 358.113l1 2.614v8.72h-1v-11.334zm99.14 7.778h-3.45v3.556h3.45v-3.556z" fill="#EF6B84"/><path fill-rule="evenodd" clip-rule="evenodd" d="M1740.34 363.589h-2.82v5.858h2.82v-5.858z" fill="#EF6B84"/><path fill-rule="evenodd" clip-rule="evenodd" d="M1740.34 360.625h-2.4v8.822h2.4v-8.822z" fill="#EF6B84"/><path fill-rule="evenodd" clip-rule="evenodd" d="M1739.78 358.113l-1.01 2.614v8.72h1.01v-11.334zm-223.99 77.072h134.43v91.946h-134.43v-91.946z" fill="#EF6B84"/><path fill-rule="evenodd" clip-rule="evenodd" d="M1515.79 429.096h36.64v98.035h-36.64v-98.035z" fill="#EF6B84"/><path fill-rule="evenodd" clip-rule="evenodd" d="M1515.6 433.808h46l1.72 1.936h-48.93l1.21-1.936zm102.58-1.539h10.6v3.465h-10.6v-3.465z" fill="#EF6B84"/><path fill-rule="evenodd" clip-rule="evenodd" d="M1618.79 424.888h9.37v10.846h-9.37v-10.846z" fill="#EF6B84"/><path fill-rule="evenodd" clip-rule="evenodd" d="M1617.9 423.997h11.15v.949h-11.15v-.949z" fill="#EF6B84"/><path fill-rule="evenodd" clip-rule="evenodd" d="M1617.45 422.989h12.05v1.17h-12.05v-1.17z" fill="#EF6B84"/><path fill-rule="evenodd" clip-rule="evenodd" d="M1619.26 421.925h8.42v1.343h-8.42v-1.343z" fill="#EF6B84"/><path fill-rule="evenodd" clip-rule="evenodd" d="M1621.14 420.64h4.68v1.508h-4.68v-1.508z" fill="#EF6B84"/><path fill-rule="evenodd" clip-rule="evenodd" d="M1622.31 419.074h2.34v1.79h-2.34v-1.79z" fill="#EF6B84"/><path fill-rule="evenodd" clip-rule="evenodd" d="M1623.48 416.559c.86 0 1.55.701 1.55 1.563 0 .857-.69 1.563-1.55 1.563a1.563 1.563 0 010-3.126zm-103.62 7.675h28.84v6.059h-28.84v-6.059z" fill="#EF6B84"/><path fill-rule="evenodd" clip-rule="evenodd" d="M1520.88 423.434h26.8v2.743h-26.8v-2.743z" fill="#EF6B84"/><path fill-rule="evenodd" clip-rule="evenodd" d="M1521.28 396.449h25.66v29.728h-25.66v-29.728z" fill="#EF6B84"/><path fill-rule="evenodd" clip-rule="evenodd" d="M1520.79 395.887h26.98v1.831h-26.98v-1.831zm8.14-14.617h10.7v11.551h-10.7V381.27z" fill="#EF6B84"/><path fill-rule="evenodd" clip-rule="evenodd" d="M1528.16 392.289h12.24v1.444h-12.24v-1.444z" fill="#EF6B84"/><path fill-rule="evenodd" clip-rule="evenodd" d="M1526.92 393.444h14.73v3.082h-14.73v-3.082zm2.3-13.184h10.12v1.635h-10.12v-1.635z" fill="#EF6B84"/><path fill-rule="evenodd" clip-rule="evenodd" d="M1528.11 379.104h12.34v1.492h-12.34v-1.492zm1.56-6.937h.91v1.871h-.91v-1.871zm2.77 0h.91v1.871h-.91v-1.871zm2.77 0h.91v1.871h-.91v-1.871zm2.77 0h.91v1.871h-.91v-1.871z" fill="#EF6B84"/><path fill-rule="evenodd" clip-rule="evenodd" d="M1529.86 374.059h8.84l-1.18 3.577v1.709h-6.48v-1.709l-1.18-3.577zm-8.06 10.045h3.19v.739h-3.19v-.739zm-.59 7.693h4.36v.868h-4.36v-.868z" fill="#EF6B84"/><path fill-rule="evenodd" clip-rule="evenodd" d="M1522.02 384.553h2.75l.46 6.838v.814h-3.67v-.814l.46-6.838zm-.58 7.824h3.91v1.522h-3.91v-1.522zm1.27-8.068l.68-4.472.69 4.472h-1.37zm-2.7 10.563h6.76v1.557h-6.76v-1.557z" fill="#EF6B84"/><path fill-rule="evenodd" clip-rule="evenodd" d="M1520.85 393.655h5.08v1.624h-5.08v-1.624zm22.38-9.551h3.19v.739h-3.19v-.739zm-.58 7.693h4.36v.868h-4.36v-.868z" fill="#EF6B84"/><path fill-rule="evenodd" clip-rule="evenodd" d="M1543.45 384.553h2.75l.46 6.838v.814h-3.67v-.814l.46-6.838zm-.58 7.824h3.91v1.522h-3.91v-1.522zm1.27-8.068l.69-4.472.68 4.472h-1.37zm-2.69 10.563h6.76v1.557h-6.76v-1.557z" fill="#EF6B84"/><path fill-rule="evenodd" clip-rule="evenodd" d="M1542.29 393.655h5.07v1.624h-5.07v-1.624zm-12.73-19.85h9.44v.444h-9.44v-.444zm-13.61 49.5h2v6.611h-2v-6.611z" fill="#EF6B84"/><path fill-rule="evenodd" clip-rule="evenodd" d="M1515.77 423.556l.56-4.096h1.24l.55 4.096h-2.35zm-.14 1.642h2.64v1.837h-2.64v-1.837zm0 3.261h2.64v1.834h-2.64v-1.834zm34.64-5.154h2v6.611h-2v-6.611z" fill="#EF6B84"/><path fill-rule="evenodd" clip-rule="evenodd" d="M1550.09 423.556l.56-4.096h1.24l.55 4.096h-2.35zm-.14 1.642h2.64v1.837h-2.64v-1.837zm0 3.261h2.64v1.834h-2.64v-1.834zm315.23 6.726h-134.42v91.946h134.42v-91.946z" fill="#EF6B84"/><path fill-rule="evenodd" clip-rule="evenodd" d="M1865.18 429.096h-36.63v98.035h36.63v-98.035z" fill="#EF6B84"/><path fill-rule="evenodd" clip-rule="evenodd" d="M1865.38 433.808h-46.01l-1.71 1.936h48.92l-1.2-1.936zm-102.58-1.539h-10.6v3.465h10.6v-3.465z" fill="#EF6B84"/><path fill-rule="evenodd" clip-rule="evenodd" d="M1762.19 424.888h-9.37v10.846h9.37v-10.846z" fill="#EF6B84"/><path fill-rule="evenodd" clip-rule="evenodd" d="M1763.08 423.997h-11.15v.949h11.15v-.949z" fill="#EF6B84"/><path fill-rule="evenodd" clip-rule="evenodd" d="M1763.52 422.989h-12.04v1.17h12.04v-1.17z" fill="#EF6B84"/><path fill-rule="evenodd" clip-rule="evenodd" d="M1761.71 421.925h-8.42v1.343h8.42v-1.343z" fill="#EF6B84"/><path fill-rule="evenodd" clip-rule="evenodd" d="M1759.84 420.64h-4.68v1.508h4.68v-1.508z" fill="#EF6B84"/><path fill-rule="evenodd" clip-rule="evenodd" d="M1758.67 419.074h-2.34v1.79h2.34v-1.79z" fill="#EF6B84"/><path fill-rule="evenodd" clip-rule="evenodd" d="M1757.5 416.559c-.85 0-1.56.701-1.56 1.563 0 .857.71 1.563 1.56 1.563a1.563 1.563 0 000-3.126zm103.62 7.675h-28.84v6.059h28.84v-6.059z" fill="#EF6B84"/><path fill-rule="evenodd" clip-rule="evenodd" d="M1860.09 423.434h-26.79v2.743h26.79v-2.743z" fill="#EF6B84"/><path fill-rule="evenodd" clip-rule="evenodd" d="M1859.69 396.449h-25.65v29.728h25.65v-29.728z" fill="#EF6B84"/><path fill-rule="evenodd" clip-rule="evenodd" d="M1860.19 395.887h-26.99v1.831h26.99v-1.831zm-8.14-14.617h-10.71v11.551h10.71V381.27z" fill="#EF6B84"/><path fill-rule="evenodd" clip-rule="evenodd" d="M1852.81 392.289h-12.23v1.444h12.23v-1.444z" fill="#EF6B84"/><path fill-rule="evenodd" clip-rule="evenodd" d="M1854.06 393.444h-14.73v3.082h14.73v-3.082zm-2.3-13.184h-10.13v1.635h10.13v-1.635z" fill="#EF6B84"/><path fill-rule="evenodd" clip-rule="evenodd" d="M1852.86 379.104h-12.33v1.492h12.33v-1.492zm-1.55-6.937h-.91v1.871h.91v-1.871zm-2.77 0h-.91v1.871h.91v-1.871zm-2.77 0h-.91v1.871h.91v-1.871zm-2.77 0h-.92v1.871h.92v-1.871z" fill="#EF6B84"/><path fill-rule="evenodd" clip-rule="evenodd" d="M1851.12 374.059h-8.84l1.17 3.577v1.709h6.49v-1.709l1.18-3.577zm8.06 10.045h-3.19v.739h3.19v-.739zm.59 7.693h-4.37v.868h4.37v-.868z" fill="#EF6B84"/><path fill-rule="evenodd" clip-rule="evenodd" d="M1858.96 384.553h-2.75l-.46 6.838v.814h3.67v-.814l-.46-6.838zm.57 7.824h-3.9v1.522h3.9v-1.522zm-1.26-8.068l-.69-4.472-.68 4.472h1.37zm2.69 10.563h-6.76v1.557h6.76v-1.557z" fill="#EF6B84"/><path fill-rule="evenodd" clip-rule="evenodd" d="M1860.12 393.655h-5.07v1.624h5.07v-1.624zm-22.37-9.551h-3.2v.739h3.2v-.739zm.59 7.693h-4.37v.868h4.37v-.868z" fill="#EF6B84"/><path fill-rule="evenodd" clip-rule="evenodd" d="M1837.52 384.553h-2.74l-.47 6.838v.814h3.67v-.814l-.46-6.838zm.58 7.824h-3.9v1.522h3.9v-1.522zm-1.27-8.068l-.68-4.472-.69 4.472h1.37zm2.7 10.563h-6.76v1.557h6.76v-1.557z" fill="#EF6B84"/><path fill-rule="evenodd" clip-rule="evenodd" d="M1838.68 393.655h-5.07v1.624h5.07v-1.624zm12.74-19.85h-9.45v.444h9.45v-.444zm13.61 49.5h-2v6.611h2v-6.611z" fill="#EF6B84"/><path fill-rule="evenodd" clip-rule="evenodd" d="M1865.2 423.556l-.55-4.096h-1.24l-.56 4.096h2.35zm.15 1.642h-2.65v1.837h2.65v-1.837zm0 3.261h-2.65v1.834h2.65v-1.834zm-34.64-5.154h-2v6.611h2v-6.611z" fill="#EF6B84"/><path fill-rule="evenodd" clip-rule="evenodd" d="M1830.88 423.556l-.56-4.096h-1.23l-.56 4.096h2.35zm.15 1.642h-2.64v1.837h2.64v-1.837zm0 3.261h-2.64v1.834h2.64v-1.834zm-127.18-158.641h1.44v.848h-1.44v-.848z" fill="#EF6B84"/><path fill-rule="evenodd" clip-rule="evenodd" d="M1703.94 268.967h1.25v1.699h-1.25v-1.699z" fill="#EF6B84"/><path fill-rule="evenodd" clip-rule="evenodd" d="M1704.06 265.821h1.01v4.845h-1.01v-4.845zm.51-.86c.22 0 .41.187.41.411 0 .223-.19.406-.41.406a.407.407 0 01-.41-.406.41.41 0 01.41-.411z" fill="#EF6B84"/><path fill-rule="evenodd" clip-rule="evenodd" d="M1704.1 265.666h.94c.15 0 .28.085.28.19v.217c0 .105-.13.19-.28.19h-.94c-.16 0-.29-.085-.29-.19v-.217c0-.105.13-.19.29-.19zm0 2.39h.94c.15 0 .28.084.28.19v.217c0 .105-.13.189-.28.189h-.94c-.16 0-.29-.084-.29-.189v-.217c0-.106.13-.19.29-.19zm-3.17 1.762h1.45v.848h-1.45v-.848z" fill="#EF6B84"/><path fill-rule="evenodd" clip-rule="evenodd" d="M1701.03 268.967h1.25v1.699h-1.25v-1.699z" fill="#EF6B84"/><path fill-rule="evenodd" clip-rule="evenodd" d="M1701.15 265.821h1.01v4.845h-1.01v-4.845zm.5-.86c.23 0 .41.187.41.411 0 .223-.18.406-.41.406a.413.413 0 01-.41-.406c0-.224.19-.411.41-.411z" fill="#EF6B84"/><path fill-rule="evenodd" clip-rule="evenodd" d="M1701.18 265.666h.95c.15 0 .28.085.28.19v.217c0 .105-.13.19-.28.19h-.95c-.15 0-.28-.085-.28-.19v-.217c0-.105.13-.19.28-.19zm0 2.39h.95c.15 0 .28.084.28.19v.217c0 .105-.13.189-.28.189h-.95c-.15 0-.28-.084-.28-.189v-.217c0-.106.13-.19.28-.19zm-22.58 1.762h1.44v.848h-1.44v-.848z" fill="#EF6B84"/><path fill-rule="evenodd" clip-rule="evenodd" d="M1678.69 268.967h1.26v1.699h-1.26v-1.699z" fill="#EF6B84"/><path fill-rule="evenodd" clip-rule="evenodd" d="M1678.81 265.821h1.01v4.845h-1.01v-4.845zm.51-.86c.22 0 .41.187.41.411 0 .223-.19.406-.41.406a.407.407 0 01-.41-.406.41.41 0 01.41-.411z" fill="#EF6B84"/><path fill-rule="evenodd" clip-rule="evenodd" d="M1678.85 265.666h.94c.16 0 .28.085.28.19v.217c0 .105-.12.19-.28.19h-.94c-.15 0-.28-.085-.28-.19v-.217c0-.105.13-.19.28-.19zm0 2.39h.94c.16 0 .28.084.28.19v.217c0 .105-.12.189-.28.189h-.94c-.15 0-.28-.084-.28-.189v-.217c0-.106.13-.19.28-.19zm-3.16 1.762h1.44v.848h-1.44v-.848z" fill="#EF6B84"/><path fill-rule="evenodd" clip-rule="evenodd" d="M1675.78 268.967h1.26v1.699h-1.26v-1.699z" fill="#EF6B84"/><path fill-rule="evenodd" clip-rule="evenodd" d="M1675.91 265.821h1v4.845h-1v-4.845zm.5-.86c.22 0 .41.187.41.411 0 .223-.19.406-.41.406a.407.407 0 01-.41-.406.41.41 0 01.41-.411z" fill="#EF6B84"/><path fill-rule="evenodd" clip-rule="evenodd" d="M1675.93 265.666h.95c.16 0 .28.085.28.19v.217c0 .105-.12.19-.28.19h-.95c-.15 0-.28-.085-.28-.19v-.217c0-.105.13-.19.28-.19zm0 2.39h.95c.16 0 .28.084.28.19v.217c0 .105-.12.189-.28.189h-.95c-.15 0-.28-.084-.28-.189v-.217c0-.106.13-.19.28-.19zm4.92-1.342h19.28v3.817h-19.28v-3.817zM928.456 85.752l2.343 8.768 9.053-.479-7.603 4.94 3.251 8.473-7.044-5.713-7.045 5.713 3.248-8.47-7.599-4.943 9.052.479 2.344-8.768z" fill="#EF6B84"/><path fill-rule="evenodd" clip-rule="evenodd" d="M913.534 200.467l14.922-98.764 14.922 98.764h-29.844zm-14.298 31.884h58.438v9.11h-58.438v-9.11z" fill="#EF6B84"/><path fill-rule="evenodd" clip-rule="evenodd" d="M900.708 232.351h55.491v16.253h-55.491v-16.253z" fill="#EF6B84"/><path fill-rule="evenodd" clip-rule="evenodd" d="M901.69 246.14h53.527v23.885H901.69V246.14z" fill="#EF6B84"/><path fill-rule="evenodd" clip-rule="evenodd" d="M900.708 207.234l4.911-14.28h45.673l4.907 14.28v41.37h-55.491v-41.37z" fill="#EF6B84"/><path fill-rule="evenodd" clip-rule="evenodd" d="M906.209 202.312l1.5-18.858 1.494 18.858h-2.994zm41.497 0l1.5-18.858 1.494 18.858h-2.994zm-48.003 8.863l1.497-18.854 1.497 18.854h-2.994zm54.512 0l1.497-18.854 1.497 18.854h-2.994zm-56.558 61.736l1.606-20.197 1.605 20.197h-3.211zm58.391 0l1.602-20.197 1.605 20.197h-3.207z" fill="#EF6B84"/><path fill-rule="evenodd" clip-rule="evenodd" d="M899.621 263.13h57.669v23.886h-57.669V263.13z" fill="#EF6B84"/><path fill-rule="evenodd" clip-rule="evenodd" d="M896.919 272.488h63.071v34.227h-63.071v-34.227z" fill="#EF6B84"/><path fill-rule="evenodd" clip-rule="evenodd" d="M893.692 302.282h69.526v34.227h-69.526v-34.227z" fill="#EF6B84"/><path fill-rule="evenodd" clip-rule="evenodd" d="M878.963 332.322h98.987v34.227h-98.987v-34.227z" fill="#EF6B84"/><path fill-rule="evenodd" clip-rule="evenodd" d="M878.963 325.921l12.03-5.418h74.924l12.033 5.418v34.226h-98.987v-34.226z" fill="#EF6B84"/><path fill-rule="evenodd" clip-rule="evenodd" d="M874.052 347.332h108.812v3.93H874.052v-3.93z" fill="#EF6B84"/><path fill-rule="evenodd" clip-rule="evenodd" d="M873.205 347.332H983.71v1.38H873.205v-1.38z" fill="#EF6B84"/><path fill-rule="evenodd" clip-rule="evenodd" d="M875.64 347.332h105.628v179.375H875.64V347.332zm-1.02-25.419l1.677-12.738 1.676 12.738h-3.353zm7.119 0l1.677-12.738 1.676 12.738h-3.353z" fill="#EF6B84"/><path fill-rule="evenodd" clip-rule="evenodd" d="M875.851 321.913l4.006-30.467 4.01 30.467h-8.016z" fill="#EF6B84"/><path fill-rule="evenodd" clip-rule="evenodd" d="M886.488 320.255h-13.259v10.589h13.259v-10.589z" fill="#EF6B84"/><path fill-rule="evenodd" clip-rule="evenodd" d="M887.863 330.016h-13.259v4.866h13.259v-4.866zm0 6.693h-13.259v4.865h13.259v-4.865zm0 6.69h-13.259v4.869h13.259v-4.869z" fill="#EF6B84"/><path fill-rule="evenodd" clip-rule="evenodd" d="M889.77 332.471h-13.259v15.603h13.259v-15.603zm92.518-10.558l-1.673-12.738-1.673 12.738h3.346zm-7.119 0l-1.68-12.738-1.673 12.738h3.353z" fill="#EF6B84"/><path fill-rule="evenodd" clip-rule="evenodd" d="M981.065 321.913l-4.01-30.467-4.006 30.467h8.016z" fill="#EF6B84"/><path fill-rule="evenodd" clip-rule="evenodd" d="M970.422 320.255h13.262v10.589h-13.262v-10.589z" fill="#EF6B84"/><path fill-rule="evenodd" clip-rule="evenodd" d="M969.046 330.016h13.262v4.866h-13.262v-4.866zm0 6.693h13.262v4.865h-13.262v-4.865zm0 6.69h13.262v4.869h-13.262v-4.869z" fill="#EF6B84"/><path fill-rule="evenodd" clip-rule="evenodd" d="M967.14 332.471h13.255v15.603H967.14v-15.603zm15.551 54.614H874.218v1.444h108.473v-1.444zm0 33.093H874.218v1.441h108.473v-1.441zm0 9.454H874.218v1.444h108.473v-1.444z" fill="#EF6B84"/><path fill-rule="evenodd" clip-rule="evenodd" d="M928.456 263.31c11.17 0 20.277 9.121 20.277 20.303 0 11.178-9.107 20.298-20.277 20.298-11.169 0-20.279-9.12-20.279-20.298 0-11.182 9.11-20.303 20.279-20.303z" fill="#fff" fill-opacity=".8"/><path fill-rule="evenodd" clip-rule="evenodd" d="M928.455 265.086c10.191 0 18.502 8.321 18.502 18.526 0 10.202-8.311 18.522-18.502 18.522-10.19 0-18.505-8.32-18.505-18.522 0-10.205 8.315-18.526 18.505-18.526z" fill="#FF7590" fill-opacity=".8"/><path fill-rule="evenodd" clip-rule="evenodd" d="M928.456 265.669c9.869 0 17.922 8.059 17.922 17.942 0 9.88-8.053 17.939-17.922 17.939-9.873 0-17.923-8.059-17.923-17.939 0-9.883 8.05-17.942 17.923-17.942z" fill="#fff" fill-opacity=".8"/><path fill-rule="evenodd" clip-rule="evenodd" d="M928.456 266.564c9.378 0 17.029 7.656 17.029 17.047 0 9.389-7.651 17.044-17.029 17.044s-17.028-7.655-17.028-17.044c0-9.391 7.65-17.047 17.028-17.047z" fill="#EF6B84"/><path fill-rule="evenodd" clip-rule="evenodd" d="M928.09 267.083h.731v3.126c-.122-.003-.244-.003-.365-.003-.126 0-.244 0-.366.003v-3.126zm.731 29.924v3.13h-.731v-3.13a10.96 10.96 0 00.731 0zm-16.875-13.033v-.733h3.123c0 .122-.004.244-.004.37 0 .118.004.244.004.363h-3.123zm29.895-.733h3.123v.733h-3.123c0-.119.007-.245.007-.363 0-.126-.007-.248-.007-.37zm-21.956-13.762l.633-.366 1.561 2.709a11.07 11.07 0 00-.633.37l-1.561-2.713zm15.579 25.547l1.564 2.713-.633.369-1.565-2.712c.214-.119.427-.244.634-.37zm-21.125-2.834l-.365-.637 2.709-1.563c.115.214.237.424.362.631l-2.706 1.569zm25.519-15.596l2.713-1.57.362.638-2.709 1.563a11.357 11.357 0 00-.366-.631zm-25.884-.932l.369-.638 2.706 1.567c-.129.207-.251.42-.366.634l-2.709-1.563zm26.253 14.328l2.706 1.563-.362.637-2.713-1.569c.129-.207.254-.417.369-.631zm-19.709 8.113l-.633-.366 1.561-2.712c.21.129.42.251.633.369l-1.561 2.709zm14.312-26.279l1.565-2.712.633.366-1.564 2.712c-.207-.125-.42-.251-.634-.366z" fill="#fff" fill-opacity=".8"/><path fill-rule="evenodd" clip-rule="evenodd" d="M938.94 282.846c.335 0 .62.217.722.519h1.53a.246.246 0 010 .491h-1.53a.77.77 0 01-.722.519.774.774 0 01-.725-.519h-1.364a1.072 1.072 0 01-1.033.818c-.102 0-.2-.017-.292-.044v.006h-9.476a1.323 1.323 0 01-.84.305c-.731 0-1.327-.6-1.327-1.329 0-.732.596-1.332 1.327-1.332.319 0 .613.119.844.308h9.483c.088-.023.182-.04.281-.04.497 0 .924.349 1.033.817h1.364a.767.767 0 01.725-.519zm-4.033 1.302a1.075 1.075 0 01-.122-.292h-8.271c-.017.099-.047.2-.091.292h8.484zm-.122-.783c.027-.102.064-.2.118-.292h-8.48c.044.092.074.194.091.292h8.271zm1.033-.343c.321 0 .589.265.589.59a.59.59 0 11-.837-.539h.004a.58.58 0 01.244-.051zm-10.608-.284c.478 0 .871.393.871.874a.876.876 0 01-.871.872.876.876 0 01-.873-.872c0-.481.392-.874.873-.874zm13.73.607c.146 0 .264.118.264.267a.265.265 0 01-.531 0c0-.149.118-.267.267-.267z" fill="#FF7590" fill-opacity=".8"/><path fill-rule="evenodd" clip-rule="evenodd" d="M927.654 272.714c0-.356.237-.664.559-.766v-.549a.776.776 0 01-.522-.729c0-.336.22-.621.522-.726v-1.654c0-.136.108-.244.244-.244.135 0 .243.108.243.244v1.658a.764.764 0 010 1.451v.549c.322.105.559.41.559.766a.794.794 0 01-.173.492v12.945c.197.173.322.308.322.708 0 .404-.43.956-.951.956-.522 0-.952-.552-.952-.956 0-.4.125-.535.318-.712v-12.941a.782.782 0 01-.169-.492zm.948 13.206v-12.416a.632.632 0 01-.145.014.635.635 0 01-.146-.014v12.416a.696.696 0 01.146-.013c.05 0 .098.003.145.013zm-.599.939c0-.247.203-.454.454-.454.247 0 .453.207.453.454a.459.459 0 01-.453.458.457.457 0 01-.454-.458zm.189-16.189c0-.146.119-.264.265-.264.145 0 .267.118.267.264a.267.267 0 01-.267.264.265.265 0 01-.265-.264zm-.078 2.044a.344.344 0 11.688 0c0 .19-.156.346-.345.346a.345.345 0 01-.343-.346z" fill="#FF7590" fill-opacity=".8"/><path fill-rule="evenodd" clip-rule="evenodd" d="M928.455 281.029l.461 1.725 1.778-.094-1.494.969.637 1.665-1.382-1.122-1.381 1.122.636-1.665-1.493-.969 1.778.094.46-1.725z" fill="#FF7590" fill-opacity=".8"/><path fill-rule="evenodd" clip-rule="evenodd" d="M994.704 454.361h5.816v9.148h-5.816v-9.148z" fill="#EF6B84"/><path fill-rule="evenodd" clip-rule="evenodd" d="M993.955 452.121c1.219.139 2.435.42 3.658.902a14.25 14.25 0 013.657-.902l-.56 3.35h-6.2l-.555-3.35zm9.795 2.24h5.82v9.148h-5.82v-9.148z" fill="#EF6B84"/><path fill-rule="evenodd" clip-rule="evenodd" d="M1003 452.121c1.22.139 2.44.42 3.66.902a14.28 14.28 0 013.66-.902l-.56 3.35h-6.2l-.56-3.35zm9.8 2.24h5.82v9.148h-5.82v-9.148z" fill="#EF6B84"/><path fill-rule="evenodd" clip-rule="evenodd" d="M1012.05 452.121c1.22.139 2.44.42 3.66.902a14.28 14.28 0 013.66-.902l-.56 3.35h-6.2l-.56-3.35zm9.8 2.24h5.82v9.148h-5.82v-9.148z" fill="#EF6B84"/><path fill-rule="evenodd" clip-rule="evenodd" d="M1021.1 452.121c1.22.139 2.44.42 3.66.902a14.28 14.28 0 013.66-.902l-.56 3.35h-6.19l-.57-3.35zm9.8 2.24h5.82v9.148h-5.82v-9.148z" fill="#EF6B84"/><path fill-rule="evenodd" clip-rule="evenodd" d="M1030.15 452.121c1.22.139 2.44.42 3.66.902a14.28 14.28 0 013.66-.902l-.56 3.35h-6.2l-.56-3.35zm9.8 2.24h5.82v9.148h-5.82v-9.148z" fill="#EF6B84"/><path fill-rule="evenodd" clip-rule="evenodd" d="M1039.2 452.121c1.22.139 2.44.42 3.66.902a14.28 14.28 0 013.66-.902l-.56 3.35h-6.2l-.56-3.35zm9.8 2.24h5.82v9.148H1049v-9.148z" fill="#EF6B84"/><path fill-rule="evenodd" clip-rule="evenodd" d="M1048.25 452.121c1.22.139 2.44.42 3.66.902a14.18 14.18 0 013.66-.902l-.56 3.35h-6.2l-.56-3.35zm9.8 2.24h5.82v9.148h-5.82v-9.148z" fill="#EF6B84"/><path fill-rule="evenodd" clip-rule="evenodd" d="M1057.3 452.121c1.22.139 2.44.42 3.66.902a14.18 14.18 0 013.66-.902l-.56 3.35h-6.2l-.56-3.35zm9.8 2.24h5.82v9.148h-5.82v-9.148z" fill="#EF6B84"/><path fill-rule="evenodd" clip-rule="evenodd" d="M1066.35 452.121c1.22.139 2.44.42 3.65.902 1.23-.482 2.45-.763 3.66-.902l-.55 3.35h-6.2l-.56-3.35zm9.8 2.24h5.82v9.148h-5.82v-9.148z" fill="#EF6B84"/><path fill-rule="evenodd" clip-rule="evenodd" d="M1075.4 452.121c1.22.139 2.44.42 3.65.902 1.23-.482 2.45-.763 3.66-.902l-.55 3.35h-6.2l-.56-3.35zm9.8 2.24h5.82v9.148h-5.82v-9.148z" fill="#EF6B84"/><path fill-rule="evenodd" clip-rule="evenodd" d="M1084.45 452.121c1.22.139 2.44.42 3.65.902a14.28 14.28 0 013.66-.902l-.56 3.35h-6.19l-.56-3.35zm9.8 2.24h5.81v9.148h-5.81v-9.148z" fill="#EF6B84"/><path fill-rule="evenodd" clip-rule="evenodd" d="M1093.5 452.121c1.22.139 2.44.42 3.65.902 1.22-.482 2.44-.763 3.67-.902l-.57 3.35h-6.19l-.56-3.35zm9.8 2.24h5.82v9.148h-5.82v-9.148z" fill="#EF6B84"/><path fill-rule="evenodd" clip-rule="evenodd" d="M1102.55 452.121c1.22.139 2.44.42 3.66.902 1.21-.482 2.43-.763 3.66-.902l-.57 3.35h-6.19l-.56-3.35zm9.79 2.24h5.83v9.148h-5.83v-9.148z" fill="#EF6B84"/><path fill-rule="evenodd" clip-rule="evenodd" d="M1111.6 452.121c1.22.139 2.43.42 3.66.902 1.21-.482 2.43-.763 3.66-.902l-.57 3.35h-6.19l-.56-3.35zm9.79 2.24h5.83v9.148h-5.83v-9.148z" fill="#EF6B84"/><path fill-rule="evenodd" clip-rule="evenodd" d="M1120.65 452.121c1.21.139 2.43.42 3.66.902a14.11 14.11 0 013.65-.902l-.56 3.35h-6.19l-.56-3.35zm9.79 2.24h5.83v9.148h-5.83v-9.148z" fill="#EF6B84"/><path fill-rule="evenodd" clip-rule="evenodd" d="M1129.7 452.121c1.22.139 2.43.42 3.65.902a14.28 14.28 0 013.66-.902l-.55 3.35h-6.2l-.56-3.35zm-207.394 2.24h5.818v9.148h-5.818v-9.148z" fill="#EF6B84"/><path fill-rule="evenodd" clip-rule="evenodd" d="M921.558 452.121a14.26 14.26 0 013.657.902 14.266 14.266 0 013.658-.902l-.559 3.35h-6.198l-.558-3.35zm9.796 2.24h5.819v9.148h-5.819v-9.148z" fill="#EF6B84"/><path fill-rule="evenodd" clip-rule="evenodd" d="M930.61 452.121c1.22.139 2.435.42 3.655.902a14.26 14.26 0 013.657-.902l-.555 3.35h-6.201l-.556-3.35zm9.798 2.24h5.815v9.148h-5.815v-9.148z" fill="#EF6B84"/><path fill-rule="evenodd" clip-rule="evenodd" d="M939.659 452.121c1.219.139 2.435.42 3.654.902a14.307 14.307 0 013.658-.902l-.559 3.35h-6.194l-.559-3.35zm9.798 2.24h5.815v9.148h-5.815v-9.148z" fill="#EF6B84"/><path fill-rule="evenodd" clip-rule="evenodd" d="M948.708 452.121c1.219.139 2.435.42 3.654.902a14.276 14.276 0 013.658-.902l-.555 3.35h-6.198l-.559-3.35zm9.798 2.24h5.818v9.148h-5.818v-9.148z" fill="#EF6B84"/><path fill-rule="evenodd" clip-rule="evenodd" d="M957.759 452.121c1.219.139 2.435.42 3.654.902a14.297 14.297 0 013.658-.902l-.556 3.35h-6.197l-.559-3.35zm9.796 2.24h5.815v9.148h-5.815v-9.148z" fill="#EF6B84"/><path fill-rule="evenodd" clip-rule="evenodd" d="M966.811 452.121a14.25 14.25 0 013.65.902 14.337 14.337 0 013.658-.902l-.555 3.35h-6.198l-.555-3.35zm9.794 2.24h5.816v9.148h-5.816v-9.148z" fill="#EF6B84"/><path fill-rule="evenodd" clip-rule="evenodd" d="M975.859 452.121c1.216.139 2.432.42 3.651.902a14.307 14.307 0 013.658-.902l-.555 3.35h-6.198l-.556-3.35zm9.796 2.24h5.815v9.148h-5.815v-9.148z" fill="#EF6B84"/><path fill-rule="evenodd" clip-rule="evenodd" d="M984.906 452.121c1.219.139 2.435.42 3.654.902a14.307 14.307 0 013.658-.902l-.555 3.35h-6.198l-.559-3.35zm-207.39 2.24h5.815v9.148h-5.815v-9.148z" fill="#EF6B84"/><path fill-rule="evenodd" clip-rule="evenodd" d="M776.769 452.121c1.219.139 2.435.42 3.654.902a14.247 14.247 0 013.661-.902l-.559 3.35h-6.198l-.558-3.35zm9.797 2.24h5.819v9.148h-5.819v-9.148z" fill="#EF6B84"/><path fill-rule="evenodd" clip-rule="evenodd" d="M785.817 452.121c1.22.139 2.435.42 3.658.902a14.256 14.256 0 013.658-.902l-.559 3.35h-6.198l-.559-3.35zm9.798 2.24h5.815v9.148h-5.815v-9.148z" fill="#EF6B84"/><path fill-rule="evenodd" clip-rule="evenodd" d="M794.866 452.121c1.219.139 2.435.42 3.655.902a14.278 14.278 0 013.661-.902l-.559 3.35h-6.198l-.559-3.35zm9.798 2.24h5.815v9.148h-5.815v-9.148z" fill="#EF6B84"/><path fill-rule="evenodd" clip-rule="evenodd" d="M803.916 452.121c1.219.139 2.435.42 3.658.902a14.26 14.26 0 013.657-.902l-.559 3.35h-6.197l-.559-3.35zm9.798 2.24h5.818v9.148h-5.818v-9.148z" fill="#EF6B84"/><path fill-rule="evenodd" clip-rule="evenodd" d="M812.965 452.121c1.219.139 2.435.42 3.658.902a14.19 14.19 0 013.657-.902l-.559 3.35h-6.197l-.559-3.35zm9.798 2.24h5.818v9.148h-5.818v-9.148z" fill="#EF6B84"/><path fill-rule="evenodd" clip-rule="evenodd" d="M822.016 452.121c1.219.139 2.435.42 3.654.902a14.328 14.328 0 013.661-.902l-.559 3.35h-6.198l-.558-3.35zm9.797 2.24h5.819v9.148h-5.819v-9.148z" fill="#EF6B84"/><path fill-rule="evenodd" clip-rule="evenodd" d="M831.064 452.121c1.22.139 2.439.42 3.655.902a14.318 14.318 0 013.661-.902l-.559 3.35h-6.198l-.559-3.35zm9.798 2.24h5.819v9.148h-5.819v-9.148z" fill="#EF6B84"/><path fill-rule="evenodd" clip-rule="evenodd" d="M840.113 452.121c1.219.139 2.435.42 3.658.902a14.26 14.26 0 013.657-.902l-.558 3.35h-6.198l-.559-3.35zm9.798 2.24h5.818v9.148h-5.818v-9.148z" fill="#EF6B84"/><path fill-rule="evenodd" clip-rule="evenodd" d="M849.163 452.121c1.219.139 2.438.42 3.658.902a14.26 14.26 0 013.657-.902l-.558 3.35h-6.198l-.559-3.35zm9.801 2.24h5.815v9.148h-5.815v-9.148z" fill="#EF6B84"/><path fill-rule="evenodd" clip-rule="evenodd" d="M858.212 452.121c1.219.139 2.438.42 3.658.902a14.26 14.26 0 013.657-.902l-.558 3.35h-6.198l-.559-3.35zm9.798 2.24h5.818v9.148h-5.818v-9.148z" fill="#EF6B84"/><path fill-rule="evenodd" clip-rule="evenodd" d="M867.261 452.121a14.26 14.26 0 013.657.902 14.276 14.276 0 013.658-.902l-.559 3.35h-6.197l-.559-3.35zm9.798 2.24h5.818v9.148h-5.818v-9.148z" fill="#EF6B84"/><path fill-rule="evenodd" clip-rule="evenodd" d="M876.314 452.121c1.216.139 2.435.42 3.655.902a14.26 14.26 0 013.657-.902l-.559 3.35h-6.197l-.556-3.35zm9.798 2.24h5.815v9.148h-5.815v-9.148z" fill="#EF6B84"/><path fill-rule="evenodd" clip-rule="evenodd" d="M885.36 452.121c1.22.139 2.439.42 3.658.902a14.266 14.266 0 013.658-.902l-.559 3.35h-6.198l-.559-3.35zm9.798 2.24h5.819v9.148h-5.819v-9.148z" fill="#EF6B84"/><path fill-rule="evenodd" clip-rule="evenodd" d="M894.412 452.121c1.219.139 2.435.42 3.654.902a14.276 14.276 0 013.658-.902l-.559 3.35h-6.197l-.556-3.35zm9.798 2.24h5.815v9.148h-5.815v-9.148z" fill="#EF6B84"/><path fill-rule="evenodd" clip-rule="evenodd" d="M903.461 452.121c1.216.139 2.435.42 3.654.902a14.266 14.266 0 013.658-.902l-.559 3.35h-6.194l-.559-3.35zm9.799 2.24h5.818v9.148h-5.818v-9.148z" fill="#EF6B84"/><path fill-rule="evenodd" clip-rule="evenodd" d="M912.512 452.121c1.219.139 2.435.42 3.654.902a14.297 14.297 0 013.658-.902l-.559 3.35h-6.198l-.555-3.35zm-207.39 2.24h5.818v9.148h-5.818v-9.148z" fill="#EF6B84"/><path fill-rule="evenodd" clip-rule="evenodd" d="M704.37 452.121c1.223.139 2.439.42 3.658.902a14.26 14.26 0 013.657-.902l-.555 3.35h-6.198l-.562-3.35zm9.798 2.24h5.818v9.148h-5.818v-9.148z" fill="#EF6B84"/><path fill-rule="evenodd" clip-rule="evenodd" d="M713.419 452.121c1.219.139 2.435.42 3.658.902a14.26 14.26 0 013.657-.902l-.559 3.35h-6.194l-.562-3.35zm9.798 2.24h5.818v9.148h-5.818v-9.148z" fill="#EF6B84"/><path fill-rule="evenodd" clip-rule="evenodd" d="M722.473 452.121c1.219.139 2.435.42 3.654.902a14.26 14.26 0 013.657-.902l-.558 3.35h-6.198l-.555-3.35zm9.798 2.24h5.815v9.148h-5.815v-9.148z" fill="#EF6B84"/><path fill-rule="evenodd" clip-rule="evenodd" d="M731.519 452.121a14.26 14.26 0 013.657.902 14.276 14.276 0 013.658-.902l-.559 3.35h-6.194l-.562-3.35zm9.796 2.24h5.819v9.148h-5.819v-9.148z" fill="#EF6B84"/><path fill-rule="evenodd" clip-rule="evenodd" d="M740.571 452.121c1.22.139 2.435.42 3.655.902a14.26 14.26 0 013.657-.902l-.555 3.35h-6.198l-.559-3.35zm9.795 2.24h5.819v9.148h-5.819v-9.148z" fill="#EF6B84"/><path fill-rule="evenodd" clip-rule="evenodd" d="M749.62 452.121c1.219.139 2.435.42 3.654.902a14.276 14.276 0 013.658-.902l-.555 3.35h-6.198l-.559-3.35zm9.798 2.24h5.818v9.148h-5.818v-9.148z" fill="#EF6B84"/><path fill-rule="evenodd" clip-rule="evenodd" d="M758.669 452.121c1.219.139 2.435.42 3.654.902a14.297 14.297 0 013.658-.902l-.555 3.35h-6.198l-.559-3.35zm9.798 2.24h5.815v9.148h-5.815v-9.148z" fill="#EF6B84"/><path fill-rule="evenodd" clip-rule="evenodd" d="M767.72 452.121c1.219.139 2.435.42 3.654.902a14.288 14.288 0 013.661-.902l-.559 3.35h-6.197l-.559-3.35zm-95.317 8.794h496.157v65.792H672.403v-65.792zm2.797-56.152h17.181v14.711H675.2v-14.711z" fill="#EF6B84"/><path fill-rule="evenodd" clip-rule="evenodd" d="M674.222 403.568h19.138v1.912h-19.138v-1.912zm0 15.573h19.138v1.913h-19.138v-1.913zm-5.137 21.522h29.41v3.591h-29.41v-3.591z" fill="#EF6B84"/><path fill-rule="evenodd" clip-rule="evenodd" d="M675.2 420.467h17.181l4.7 17.678v3.59h-26.582v-3.59l4.701-17.678zm3.217-16.481l5.371-14.928 5.375 14.928h-10.746zm-8.729 40.028h28.207v9.453h-28.207v-9.453z" fill="#EF6B84"/><path fill-rule="evenodd" clip-rule="evenodd" d="M666.987 451.568h33.607v75.139h-33.607v-75.139zm131.334-15.494l4.752-21.031 4.752 21.031h-9.504z" fill="#EF6B84"/><path fill-rule="evenodd" clip-rule="evenodd" d="M794.39 435.802h17.015v27.032H794.39v-27.032z" fill="#EF6B84"/><path fill-rule="evenodd" clip-rule="evenodd" d="M794.315 439.447l1.294-10.032 1.297 10.032h-2.591z" fill="#EF6B84"/><path fill-rule="evenodd" clip-rule="evenodd" d="M793.695 435.588h3.211v5.791h-3.211v-5.791zm17.785 3.859l-1.298-10.032-1.293 10.032h2.591z" fill="#EF6B84"/><path fill-rule="evenodd" clip-rule="evenodd" d="M812.096 435.588h-3.207v5.791h3.207v-5.791zm362.974-30.825h-17.17v14.711h17.17v-14.711z" fill="#EF6B84"/><path fill-rule="evenodd" clip-rule="evenodd" d="M1176.05 403.568h-19.13v1.912h19.13v-1.912zm0 15.573h-19.13v1.913h19.13v-1.913zm5.14 21.522h-29.41v3.591h29.41v-3.591z" fill="#EF6B84"/><path fill-rule="evenodd" clip-rule="evenodd" d="M1175.07 420.467h-17.17l-4.71 17.678v3.59h26.59v-3.59l-4.71-17.678zm-3.21-16.481l-5.38-14.928-5.37 14.928h10.75zm8.72 40.028h-28.2v9.453h28.2v-9.453z" fill="#EF6B84"/><path fill-rule="evenodd" clip-rule="evenodd" d="M1183.29 451.568h-33.61v75.139h33.61v-75.139zm-131.34-15.494l-4.75-21.031-4.75 21.031h9.5z" fill="#EF6B84"/><path fill-rule="evenodd" clip-rule="evenodd" d="M1055.88 435.802h-17.01v27.032h17.01v-27.032z" fill="#EF6B84"/><path fill-rule="evenodd" clip-rule="evenodd" d="M1055.96 439.447l-1.29-10.032-1.3 10.032h2.59z" fill="#EF6B84"/><path fill-rule="evenodd" clip-rule="evenodd" d="M1056.58 435.588h-3.21v5.791h3.21v-5.791zm-17.79 3.859l1.3-10.032 1.3 10.032h-2.6z" fill="#EF6B84"/><path fill-rule="evenodd" clip-rule="evenodd" d="M1038.17 435.588h3.21v5.791h-3.21v-5.791z" fill="#EF6B84"/><path fill-rule="evenodd" clip-rule="evenodd" d="M531.285 231.437H426.057v306.49h120.726l-15.498-306.49z" fill="#FF7590" fill-opacity=".8"/><path fill-rule="evenodd" clip-rule="evenodd" d="M433.707 195.579c7.366 0 13.374 60.411 13.374 134.483 0 74.067-6.008 134.475-13.374 134.475-7.366 0-13.378-60.408-13.378-134.475 0-74.072 6.012-134.483 13.378-134.483zm67.711 0c7.366 0 13.377 60.411 13.377 134.483 0 74.067-6.011 134.475-13.377 134.475-7.367 0-13.378-60.408-13.378-134.475 0-74.072 6.011-134.483 13.378-134.483z" fill="#FF7590" fill-opacity=".8"/><path fill-rule="evenodd" clip-rule="evenodd" d="M433.148 198.219h67.904v42.025h-67.904v-42.025z" fill="#FF7590" fill-opacity=".8"/><path fill-rule="evenodd" clip-rule="evenodd" d="M499.887 223.315h23.28v12.65h-23.28v-12.65z" fill="#FF7590" fill-opacity=".8"/><path fill-rule="evenodd" clip-rule="evenodd" d="M518.124 229.737h9.31v4.279h-9.31v-4.279zm-71.203-35.796h.972v5.835h-.972v-5.835zm6.016 2.14h.968v4.278h-.968v-4.278zm-36.275 142.616h-48.996v71.142h48.996v-71.142z" fill="#FF7590" fill-opacity=".8"/><path fill-rule="evenodd" clip-rule="evenodd" d="M419.581 249.364h-51.915v91.282h51.915v-91.282z" fill="#FF7590" fill-opacity=".8"/><path fill-rule="evenodd" clip-rule="evenodd" d="M419.996 179.525H371v74.386h48.996v-74.386z" fill="#FF7590" fill-opacity=".8"/><path fill-rule="evenodd" clip-rule="evenodd" d="M419.581 97.611h-51.915v84.185h51.915V97.611z" fill="#FF7590" fill-opacity=".8"/><path fill-rule="evenodd" clip-rule="evenodd" d="M401.936 88.325h-28.922v84.185h28.922V88.325zM268.168 302.867c14.855-13.098 30.785-19.919 47.901-19.848v254.908h-47.901c-16.128-74.292-9.359-154.351 0-235.06z" fill="#FF7590" fill-opacity=".8"/><path fill-rule="evenodd" clip-rule="evenodd" d="M373.152 397.386h-58.665l-9 12.643v127.898h67.665V397.386z" fill="#FF7590" fill-opacity=".8"/><path fill-rule="evenodd" clip-rule="evenodd" d="M372 306h-56v92h56v-92z" fill="#FF7590" fill-opacity=".8"/><path fill-rule="evenodd" clip-rule="evenodd" d="M372 217h-56v95h56v-95z" fill="#FF7590" fill-opacity=".8"/><path fill-rule="evenodd" clip-rule="evenodd" d="M371.714 111.573h-55.883v106.182h55.883V111.573z" fill="#FF7590" fill-opacity=".8"/><path fill-rule="evenodd" clip-rule="evenodd" d="M355.998 101.025H323.16v26.211h32.838v-26.211zM212.86 124.353H98.964v413.574H212.86V124.353z" fill="#FF7590" fill-opacity=".8"/><path fill-rule="evenodd" clip-rule="evenodd" d="M205.271 109.803c-38.177-15.802-73.789-16.823-106.307 0v24.744H205.27v-24.744z" fill="#FF7590" fill-opacity=".8"/><path fill-rule="evenodd" clip-rule="evenodd" d="M201.291 116.723h6.367v11.436h-6.367v-11.436zm-3.848-13.627c-32.84-13.595-63.474-14.47-91.449 0l.265 1.597c27.899-14.433 58.443-13.599 91.184-.108v-1.489z" fill="#FF7590" fill-opacity=".8"/><path fill-rule="evenodd" clip-rule="evenodd" d="M108.388 103.47v2.2c-.343.139-.684.281-1.027.424v-2.119c.343-.17.684-.339 1.027-.505zm5.679-2.55v2.624c-.342.119-.685.237-1.028.359v-2.556l1.028-.427zm2.841-1.108v2.807c-.342.108-.683.213-1.026.325v-2.742c.343-.133.684-.262 1.026-.39zm2.838-1.004v2.97c-.342.095-.682.194-1.026.295v-2.912c.342-.122.684-.237 1.026-.353zm2.843-.905v3.119a53.52 53.52 0 00-1.029.264v-3.068l1.029-.316zm2.838-.801v3.245c-.343.071-.683.156-1.027.234v-3.2a53.8 53.8 0 011.027-.279zm2.842-.708v3.36l-1.027.203v-3.316a95.63 95.63 0 011.027-.247zm2.84-.606v3.458c-.343.054-.686.115-1.027.173v-3.424c.341-.072.684-.14 1.027-.207zm2.841-.519v3.543c-.344.047-.684.098-1.027.149v-3.516c.343-.061.683-.119 1.027-.176zm2.838-.425v3.611l-1.027.122v-3.594c.342-.047.685-.095 1.027-.139zm1.813-.22h1.027v3.553l-1.027.092v-3.645zm2.928-.291h.939v3.641l-1.027.061V94.34a.784.784 0 00.088-.007zm2.752-.073h1.028v3.578c-.343.013-.685.027-1.028.044V94.26zm2.838-.203h1.028v3.723c-.342 0-.685.007-1.028.01v-3.733zm3.869-.034v3.767c-.342-.007-.683-.01-1.026-.014V94.01c.343.003.684.006 1.026.013zm1.814.167h1.029v3.68c-.344-.014-.685-.028-1.029-.038V94.19zm2.84.218h1.026v3.608c-.342-.024-.685-.041-1.026-.061v-3.547zm3.867.102v3.718c-.342-.027-.685-.06-1.028-.084v-3.73c.343.03.686.061 1.028.095zm2.84.314v3.686l-1.027-.112v-3.7c.342.042.683.086 1.027.126zm2.841.389v3.635c-.344-.044-.684-.085-1.028-.13v-3.654c.344.05.684.098 1.028.149zm2.841.467v3.58c-.343-.051-.685-.105-1.028-.156v-3.6c.343.053.685.114 1.028.175zm2.838.53v3.52a73.718 73.718 0 00-1.028-.18v-3.54c.343.065.685.132 1.028.2zm2.841.604v3.445c-.343-.068-.684-.136-1.026-.197V96.59c.342.075.683.146 1.026.224zm1.812.718h1.028v3.32l-1.028-.224v-3.096zm2.839.656h.88l.149.04v3.276c-.343-.085-.686-.163-1.029-.244v-3.072zm3.869.844v3.18c-.341-.092-.684-.176-1.027-.265v-3.21c.343.098.686.196 1.027.295zm2.839.874v3.072l-1.027-.285v-3.11c.343.106.685.21 1.027.323zm2.84.933v2.963c-.343-.105-.686-.204-1.028-.305v-3.004c.345.115.685.23 1.028.346zm2.84 1v2.842l-1.027-.326v-2.885c.342.122.685.244 1.027.369zm2.842 1.061v2.716a69.079 69.079 0 00-1.029-.346v-2.763c.342.129.685.258 1.029.393zm2.84 1.12v2.58c-.343-.122-.684-.241-1.027-.36v-2.634c.343.139.684.271 1.027.414zM93.11 270.017c-31.83 2.8-56.92 9.249-57.923 28.751v239.159H93.11v-267.91z" fill="#FF7590" fill-opacity=".8"/><path fill-rule="evenodd" clip-rule="evenodd" d="M85.545 268.286c-25.775 2.265-46.09 7.49-46.903 23.279v193.66h46.903V268.286zM225.843 487.29h73.821v50.637h-73.821V487.29z" fill="#FF7590" fill-opacity=".8"/><path fill-rule="evenodd" clip-rule="evenodd" d="M240.88 472.227h45.112v20.868H240.88v-20.868z" fill="#FF7590" fill-opacity=".8"/><path fill-rule="evenodd" clip-rule="evenodd" d="M236.262 388.137c-3.578-11.979-54.747-23.473-95.811-25.659v175.449h95.811v-149.79z" fill="#EF6B84"/><path fill-rule="evenodd" clip-rule="evenodd" d="M231.077 382.368c-2.488-11.979-20.912-24.171-66.605-27.866l-7.473 6.133v171.523h74.078v-149.79zm238.502 9.735l-17.52-6.438-17.743 6.438v145.824h55.221l-19.958-145.824z" fill="#EF6B84"/><path fill-rule="evenodd" clip-rule="evenodd" d="M436.091 392.103l-35.259-3.329v149.153h35.259V392.103z" fill="#EF6B84"/><path fill-rule="evenodd" clip-rule="evenodd" d="M403.491 383.888h-35.259l-11.989 11.616v142.423h63.66l-16.412-154.039zm38.29 2.101h3.296v5.059h-3.296v-5.059zm-8.714 2.927h4.213v5.103h-4.213v-5.103z" fill="#EF6B84"/><path fill-rule="evenodd" clip-rule="evenodd" d="M435.736 389.709h4.169v2.258h-4.169v-2.258zm-96.997 108.295h35.26v39.923h-46.128l10.868-39.923z" fill="#EF6B84"/><path fill-rule="evenodd" clip-rule="evenodd" d="M11.716 518.296H570.1v19.631H11.716v-19.631z" fill="#EF6B84"/><path fill-rule="evenodd" clip-rule="evenodd" d="M23.651 511.776h29.837v18.773H23.65v-18.773zm52.002-12.803h30.69v29.015h-30.69v-29.015zm71.61 11.948h-35.804v15.362h35.804v-15.362zm69.903 2.56h40.069v15.362h-40.069v-15.362zm57.119-5.971h18.754v20.478h-18.754V507.51zm35.806 6.825h47.741v11.097h-47.741v-11.097zm151.743-4.269h50.296v15.366h-50.296v-15.366z" fill="#EF6B84"/><path fill-rule="evenodd" clip-rule="evenodd" d="M506.162 496.413h23.873v31.575h-23.873v-31.575z" fill="#EF6B84"/><path fill-rule="evenodd" clip-rule="evenodd" d="M556.461 512.626H518.95v15.362h37.511v-15.362z" fill="#EF6B84"/><path fill-rule="evenodd" clip-rule="evenodd" d="M0 634.378h1920.01V525.463H0v108.915z" fill="#EF6B84"/><path fill-rule="evenodd" clip-rule="evenodd" d="M1328.28 513.583h107.43v17.59h-107.43v-17.59z" fill="#EF6B84"/><path fill-rule="evenodd" clip-rule="evenodd" d="M1336.15 486.614h53.88v35.763h-53.88v-35.763zm67.35 20.521h73.2v24.038h-73.2v-24.038z" fill="#EF6B84"/><path fill-rule="evenodd" clip-rule="evenodd" d="M1464.99 493.65h22.25v36.936h-22.25V493.65z" fill="#EF6B84"/><path fill-rule="evenodd" clip-rule="evenodd" d="M1484.9 522.378h18.16v5.862h-18.16v-5.862z" fill="#EF6B84"/><path fill-rule="evenodd" clip-rule="evenodd" d="M1496.61 499.512h24.01v34.003h-24.01v-34.003zm35.14 22.866h37.48v12.31h-37.48v-12.31z" fill="#EF6B84"/><path fill-rule="evenodd" clip-rule="evenodd" d="M1553.41 499.511h29.29v32.834h-29.29v-32.834z" fill="#EF6B84"/><path fill-rule="evenodd" clip-rule="evenodd" d="M1206.38 506.124h82.53v7.367h-82.53v-7.367z" fill="#FF7590" fill-opacity=".8"/><path fill-rule="evenodd" clip-rule="evenodd" d="M1235.83 480.312h23.63v24.394h-23.63v-24.394z" fill="#EF6B84"/><path fill-rule="evenodd" clip-rule="evenodd" d="M1236.54 479.428h22.22v24.394h-22.22v-24.394z" fill="#EF6B84"/><path fill-rule="evenodd" clip-rule="evenodd" d="M1246.44 482.732h2.41v4.039h-2.41v-4.039zm-3.63 0h2.41v4.039h-2.41v-4.039zm-3.64 0h2.42v4.039h-2.42v-4.039zm10.91 0h2.4v4.039h-2.4v-4.039zm3.63 0h2.41v4.039h-2.41v-4.039z" fill="#FF7590" fill-opacity=".8"/><path fill-rule="evenodd" clip-rule="evenodd" d="M1207.76 499.773h79.77v13.718h-79.77v-13.718z" fill="#EF6B84"/><path fill-rule="evenodd" clip-rule="evenodd" d="M1215.65 498.668h63.98v14.823h-63.98v-14.823z" fill="#EF6B84"/><path fill-rule="evenodd" clip-rule="evenodd" d="M1224.37 491.029h46.54v22.462h-46.54v-22.462z" fill="#EF6B84"/><path fill-rule="evenodd" clip-rule="evenodd" d="M1227.22 489.097h40.85v24.394h-40.85v-24.394z" fill="#EF6B84"/><path fill-rule="evenodd" clip-rule="evenodd" d="M1232.29 487.408H1263v24.395h-30.71v-24.395zm-41.79 25.897h114.29v13.254H1190.5v-13.254z" fill="#EF6B84"/><path fill-rule="evenodd" clip-rule="evenodd" d="M1191.33 508.704h112.63v4.787h-112.63v-4.787z" fill="#FF7590" fill-opacity=".8"/><path fill-rule="evenodd" clip-rule="evenodd" d="M1189.77 510.82h115.75v2.671h-115.75v-2.671z" fill="#EF6B84"/></svg>