<svg width="251" height="350" fill="none" xmlns="http://www.w3.org/2000/svg"><path d="M82.939 89.29l-.886.794c-.454.408-1.141.39-1.53-.038L64.812 72.761c-.39-.428-.336-1.107.118-1.515l.885-.793c.455-.409 1.142-.391 1.533.04l15.71 17.282c.39.429.339 1.107-.118 1.515z" fill="#13375B"/><path d="M136.21 75.25c-2.102-1.709-13.834-3.278-13.627-.797.208 2.483-15.842 35.25-15.842 35.25l-18.81-16.476c-.176-.576-3.204-6.193-3.297-7.3-.096-1.16-3.465-3.193-5.029-2.893-1.567.299 1.335 2.263 1.527 2.624.52.981-1.487 1.35-1.487 1.35s-5.76-3.164-5.881-5.025c-.124-1.861-1.317-5.761-2.559-4.945-.643.42-.637 3.188-.436 4.5-.37-1.49-.893-3.173-1.406-3.34-.93-.304-1.394.882-1.224 1.465.167.582 1.675 6.91 2.13 7.623.45.695 9.75 8.196 11.092 9.826 0 0 16.788 22.77 28.418 26.013 1.684.468 6.564-5.229 11.995-11.979 5.427-6.75 20.997-30.557 14.436-35.895z" fill="#EA9081"/><path d="M114.998 87.095c6.718-15.102 15.603-39.212 26.274-40.55 0 0 6.629-1.382 10.087 7.809 1.95 5.32-7.149 31.534-18.786 48.918-3.875-6.071-11.088-13.23-17.575-16.177z" fill="#872828"/><path d="M123.803 310.919l.633 11.37c.233 1.443 1.143 5.002 1.143 6.31 0 4.921-21.49-4.177-16.672-6.356.433-.199 2.72-1.691 2.863-3.366.221-2.579.779-7.799.779-7.799l11.254-.159z" fill="#F7A491"/><path d="M108.958 322.197s5.044 1.503 7.628 1.88c2.587.377 5.996-2.791 7.82-1.935 2.012.94 1.812 10.217 1.812 10.217s-26.937 1.615-34.547-.88c-3.011-.989 6.973-5.778 17.287-9.282z" fill="#F47458"/><path d="M164.048 312.01l.637 11.368c.229 1.441 1.144 5 1.144 6.31 0 4.922-21.49-4.176-16.674-6.355.436-.199 3.396-2.806 3.539-4.479.223-2.582.103-6.686.103-6.686l11.251-.158z" fill="#F7A491"/><path d="M149.209 323.284s5.045 1.506 7.632 1.882c2.583.377 5.989-2.791 7.819-1.937 2.01.943 2.091 9.42 2.091 9.42s-28.796 2.127-35.566.132c-3.041-.896 7.712-5.99 18.024-9.497z" fill="#F47458"/><path d="M137.089 148.204l-11.726 5.155-16.471 91.809.771 69.699 15.322.365s7.127-60.968 7.127-65.694c0-4.726 33.01-82.686 33.01-82.686l-28.033-18.648z" fill="#1A2538"/><path d="M137.009 153.32s6.694 71.633 6.694 83.707c0 12.076 5.428 79.656 5.428 79.656l15.36-.092s1.104-20.599 2.752-50.904c.256-4.746-.333-14.322 0-19.235 2.39-35.34 7.653-81.712 5.398-94.898-.365-2.124-1.867-6.715-3.196-8.118-10.057-10.598-32.436 9.884-32.436 9.884z" fill="#283A56"/><path d="M50.795 323.778c0 14.02-11.366 25.386-25.386 25.386S.023 337.798.023 323.778s11.367-25.386 25.386-25.386c14.02 0 25.386 11.366 25.386 25.386zm199.808 0c0 14.02-11.366 25.386-25.388 25.386-14.018 0-25.383-11.366-25.383-25.386 0-14.019 11.365-25.386 25.383-25.386 14.022 0 25.388 11.367 25.388 25.386z" fill="#184655"/><path d="M42.606 323.778c0 9.498-7.698 17.196-17.196 17.196-9.498 0-17.196-7.698-17.196-17.196 0-9.498 7.698-17.196 17.196-17.196 9.498 0 17.196 7.698 17.196 17.196zm199.811 0c0 9.498-7.7 17.196-17.195 17.196-9.499 0-17.196-7.698-17.196-17.196 0-9.498 7.697-17.196 17.196-17.196 9.495 0 17.195 7.698 17.195 17.196z" fill="#CE5151"/><path d="M226.58 322.232a2.459 2.459 0 00-3.164-1.438l-29.742 11.174H73.891l-30.474-67.663-4.016 12.772 26.881 59.315.004-.003c.09.308.321.492.873.492h127.76c.725 0 30.225-11.487 30.225-11.487a2.457 2.457 0 001.436-3.162z" fill="#1A2538"/><path d="M123.445 159.28l5.233-33.064s-4.729-30.454-4.404-51.344c.198-9.262 5.625-21.694 6.858-21.957 6.151-1.323 8.059-10.934 18.337-3.885 12.101 8.477 25.669 42.282 24.502 109.612 0 0-37.487 4.775-50.526.638z" fill="#CE5151"/><path d="M125.066 41.797l2.594 8.933s2.699 13.147 7.509 14.544c4.805 1.396 10.685-16.114 10.685-16.114l-12.796-24.64-7.992 17.277z" fill="#F7A491"/><path d="M136.664 31.465c.278 8.243-4.995 14.756-9.397 17.908l-2.2-7.576 7.992-17.275 3.605 6.944z" fill="#F47458"/><path d="M133.114 9.873c.336-.219 7.347 18.25 3.664 24.645-3.682 6.399-12.829 10.361-17.212 7.03-4.852-3.683-9.421-24.227-3.055-31.414 6.365-7.187 16.603-.261 16.603-.261z" fill="#F7A491"/><path d="M121.728 1.07c6.055-1.187 14.692.709 19.879 6.014 6.379 6.52-1.18 31.488-1.18 31.488l-3.379-4.587s-2.28-2.707-1.63-5.77c.653-3.064-3.841-3.944-5.511-5.974-1.293-1.561-2.274-5.596-4.338-8.194 0 0-6.351-2.963-10.201-2.192-6.561 1.312-2.314-9.083 6.36-10.785z" fill="#13375B"/><path d="M132.413 25.782c-.753 2.186-.297 4.322 1.013 4.772 1.313.45 2.988-.958 3.737-3.143.753-2.183.297-4.319-1.016-4.769-1.31-.45-2.981.955-3.734 3.14z" fill="#F7A491"/><path d="M116.574 33.533l7.74-2.637s.829 3.054-2.541 4.313c-4.11 1.536-5.199-1.676-5.199-1.676z" fill="#fff"/><path d="M65.445 99.36c3.699-1.274 10.393-1.76 12.89.687 1.35 1.322 33.173 9.607 34.204 8.928 2.485-1.632 10.721-23.173 15.283-35.219 4.563-12.044 6.445-12.975 10.667-14.576 3.607-1.366 14.464 4.09 13.571 10.274-1.718 11.952-26.533 55.082-29.191 56.111-9.876 3.824-49.425-17.337-50.169-17.702-.993-.483-3.941.897-4.931.414-.997-.486-3.02 2.883-4.323.196-.34-.705-1.697-7.84 1.999-9.113z" fill="#F7A491"/><path d="M28.526 289.225l5.663 1.141 36.333-180.468-5.66-1.141-36.336 180.468z" fill="#1A2538"/><path d="M23.981 300.83l9.91 1.995 25.503-126.683-9.909-1.995L23.981 300.83z" fill="#F47458"/><path d="M23.092 330.841a7.218 7.218 0 008.503-5.651l4.52-22.457a.912.912 0 00-.714-1.078l-12.364-2.49a.915.915 0 00-1.075.716l-4.521 22.46a7.214 7.214 0 005.651 8.5zm1.47-35.786l11.024 2.219a1.594 1.594 0 001.88-1.251l10.628-52.778a1.597 1.597 0 00-1.25-1.88l-11.025-2.219a1.595 1.595 0 00-1.88 1.25l-10.628 52.779a1.598 1.598 0 001.25 1.88z" fill="#1A2538"/><path d="M63.444 108.473a4.334 4.334 0 003.392 5.102 4.33 4.33 0 005.1-3.392 4.332 4.332 0 10-8.492-1.71z" fill="#F47458"/><path d="M118.841 86.477c6.715-15.1 18.21-38.593 28.881-39.932 0 0 6.633-1.38 10.09 7.809 1.949 5.322-7.154 31.535-18.789 48.919-3.872-6.071-13.697-13.848-20.182-16.796z" fill="#B84646"/></svg>