<svg width="904" height="510" fill="none" xmlns="http://www.w3.org/2000/svg"><path d="M888.346 509.153c29.491-40.995 10.475-304.97-37.067-331.709-24.622-13.848-46.964-10.288-68.002-6.728-23.593 3.992-45.549 7.984-67.242-12.568-17.9-16.957-3.11-59.04-40.107-72.863-21.904-8.184-57.708.046-90.263 8.276-44.697 11.296-83.281 22.593-71.409-8.564C534.776 31.142 395.177-6.01 262.032 1.122 128.888 8.254 153.603 81.253 155.468 93.06c1.866 11.807 21.453 68.831-54.408 95.039-75.862 26.208-58.45 61.919-50.989 82.368 6.5 17.809 43.216 38.88-10.26 84.958-44.522 38.365-32.773 133.651-19.84 153.193l868.375.534z" fill="#FFE9E9"/><path d="M323.659 172.963H187.82a18.17 18.17 0 01-.099-1.874c0-10.679 9.344-19.335 20.871-19.335 3.684 0 7.142.888 10.147 2.438 4.244-10.823 15.445-18.553 28.596-18.553 11.052 0 20.728 5.462 26.055 13.631a26.477 26.477 0 017.342-1.032c9.894 0 18.423 5.396 22.356 13.184a18.092 18.092 0 014.231-.501c7.966 0 14.629 5.146 16.34 12.042zm89.559-100.444H297.225c1.459-5.89 7.148-10.286 13.948-10.286 1.25 0 2.463.151 3.614.428 3.359-6.65 10.642-11.258 19.09-11.258 2.185 0 4.291.311 6.274.88 4.547-6.975 12.809-11.639 22.245-11.639 11.233 0 20.798 6.603 24.421 15.845a18.865 18.865 0 018.666-2.084c9.842 0 17.821 7.394 17.821 16.51 0 .541-.031 1.077-.086 1.603zm80.383 90.832h-65.202c.821-3.312 4.019-5.78 7.843-5.78.7 0 1.381.081 2.03.24 1.887-3.739 5.98-6.327 10.728-6.327 1.23 0 2.413.172 3.529.493 2.556-3.921 7.2-6.542 12.503-6.542 6.314 0 11.688 3.71 13.728 8.906a10.58 10.58 0 014.868-1.171c5.533 0 10.019 4.155 10.019 9.279 0 .305-.013.607-.046.902zm220.462 23.498h-101.74c1.278-5.166 6.269-9.02 12.235-9.02 1.098 0 2.16.131 3.171.375 2.946-5.832 9.334-9.874 16.743-9.874 1.916 0 3.764.27 5.501.772 3.989-6.119 11.237-10.21 19.514-10.21 9.849 0 18.242 5.791 21.422 13.898a16.505 16.505 0 017.597-1.827c8.636 0 15.631 6.483 15.631 14.481 0 .474-.028.942-.074 1.405z" fill="#FBFEFE"/><path d="M38.648 356.452v-1.423h1.622l-.46.397c-.39.339-.779.681-1.162 1.026z" fill="#E2EEFC"/><path d="M38.648 505.221V356.452c.383-.345.771-.687 1.162-1.026l.46-.397H59.1v-19.355l30.672-29.638v44.799l9.175.287V305.95h10.704v-67.971h6.423v-12.927h25.078v12.927h6.423v19.249h25.992v73.194l5.247.287.297-72.493h18.62v38.564l11.621.288v-60.274h3.977v-12.72h34.864v12.72h3.976v81.226h7.341v-25.328h6.115v-12.383h8.871v-36.151h12.844v36.151h8.869v12.383h6.117v42.85h4.283l3.363-.04v-49.646l36.876.811v34.3h23.34v-14.652h27.524V226.03h7.951v-10.342h17.432v98.722h19.039v14.652h7.641l17.363-40.958 73.137-2.288v31.285l7.641.04v-24.486h6.116v-12.387h8.868v-36.15h12.838v36.15h8.868v12.387h6.111v14.796h7.344v-70.697h3.969v-12.72h34.857v12.72h3.969v60.276l11.621-.287v-38.567h33.019l1.481 72.493 4.938-.287v-24.469h10.701v-19.249h6.419v-12.927h25.07v12.927h6.424v19.249h10.701v45.169l9.172-.287v-44.799h30.661v48.993h18.726v-21.261h13.124v47.751h23.523v123.702l-399.142.02-408.646.02z" fill="#FCCDCD"/><path d="M604.741 493.231c-110.879-11.916-249.74-127.617-343.905-141.113-99.295-14.23-201.36 144.255-201.36 144.255l545.265-1.389v-1.753z" fill="#FC8888"/><path d="M903.297 509.51H.323v-2.346h902.974v2.346z" fill="#1A2538"/></svg>