<svg width="87" height="147" fill="none" xmlns="http://www.w3.org/2000/svg"><path d="M79.239 0H7.567C3.362 0 .254 3.114.254 7.313v132.374c0 4.199 3.108 7.313 7.313 7.313H79.24c4.205 0 7.313-3.114 7.313-7.313V7.313C86.552 3.114 83.444 0 79.24 0z" fill="#ECF0F1"/><path d="M86.552 7.313v8.045S3.122 15.216.254 140.418c-.05-.31 0-.417 0-.731V7.313C.254 3.112 3.363 0 7.567 0H79.24c4.204 0 7.313 3.112 7.313 7.313z" fill="#ECF0F1"/><path d="M76.314 0l-5.12 8.776c-1.36 2.258-3.91 3.665-6.581 3.657H22.195c-2.671.008-5.222-1.4-6.582-3.657L10.493 0h65.821zM61.687 136.761H25.851c-1.413 0-2.925-.78-2.925-2.194 0-1.413 1.512-2.925 2.925-2.925h35.836c1.414 0 2.194 1.512 2.194 2.925 0 1.414-.78 2.194-2.194 2.194z" fill="#464F5D"/><path d="M33.165 96.537c-.675 0-.986-.256-1.463-.731L21.463 85.567c-.964-.995-.981-2.679 0-3.656.982-.978 2.658-.961 3.657 0l8.776 8.776 30.716-26.329c1.076-.866 2.764-1.051 3.657 0 .894 1.052 1.035 2.743 0 3.657L35.36 95.806c-.461.39-1.59.734-2.194.731z" fill="#65DDB9"/></svg>