<svg width="147" height="148" fill="none" xmlns="http://www.w3.org/2000/svg"><path d="M58.642 128.119H88.83v14.727c0 2.745-2.376 5.154-5.155 5.154h-19.88c-2.779 0-5.154-2.409-5.154-5.154v-14.727z" fill="#95A5A5"/><path d="M10.781 112.657v7.363h7.363" stroke="#000" stroke-width="17.356" stroke-linecap="round" stroke-linejoin="round"/><path d="M110.92 19.88h25.035c5.553 0 10.309 4.764 10.309 10.31v89.83c0 5.545-4.756 10.308-10.309 10.308H10.781c-5.553 0-10.308-4.763-10.308-10.308V30.19c0-5.546 4.755-10.31 10.308-10.31H110.92z" fill="#ECF0F1"/><path d="M138.164 19.88C109.086 21.483 6.168 33.61.473 122.23c-.173-.721-.006-1.468 0-2.209V30.19c0-5.528 4.766-10.31 10.308-10.31h125.174c.717-.001 1.509-.151 2.209 0z" fill="#ECF0F1"/><path d="M38.025 30.19h-5.154V12.516c0-4.168-3.215-7.363-7.363-7.363-4.148 0-7.363 3.195-7.363 7.363v7.364H12.99v-7.364A12.496 12.496 0 0125.508 0c6.913 0 12.517 5.57 12.517 12.517V30.19zm37.552 0h-5.154V12.516c0-4.168-3.216-7.363-7.364-7.363s-7.363 3.195-7.363 7.363v7.364h-5.154v-7.364A12.496 12.496 0 0163.059 0c6.914 0 12.518 5.57 12.518 12.517V30.19zm37.553 0h-5.155V12.516c0-4.168-3.215-7.363-7.363-7.363-4.148 0-7.363 3.195-7.363 7.363v7.364h-5.154v-7.364A12.496 12.496 0 01100.612 0c6.913 0 12.518 5.57 12.518 12.517V30.19z" fill="#95A5A5"/><path d="M46.86 40.498H24.036c-.87 0-1.016-.713-1.473-1.473-.457-.76-1.125-1.41-.736-2.209l.736-.736c1.7-3.493 5.034-5.891 8.836-5.89h8.1c3.802-.001 7.135 2.397 8.835 5.89l.736.736c.39.799-.279 1.45-.736 2.209-.457.76-.603 1.472-1.472 1.473zm38.29 0H62.324c-.87 0-1.016-.713-1.473-1.473-.457-.76-1.125-1.41-.736-2.209l.736-.736c1.7-3.493 5.034-5.891 8.836-5.89h8.1c3.802-.001 7.135 2.397 8.835 5.89l.737.736c.388.799-.28 1.45-.737 2.209-.457.76-.603 1.472-1.472 1.473zm37.551 0H99.876c-.87 0-1.016-.713-1.473-1.473-.457-.76-1.125-1.41-.736-2.209l.736-.736c1.7-3.493 5.034-5.891 8.836-5.89h8.099c3.802-.001 7.136 2.397 8.836 5.89l.736.736c.389.799-.279 1.45-.736 2.209-.457.76-.603 1.472-1.473 1.473z" fill="#F3D55B"/><path d="M91.04 112.657l-.736.736c-1.173 1.187-2.763 2.211-4.418 2.209H46.861c2.113-3.689 1.975-8.521-.736-11.781v-.736h37.552l8.1-8.1c1.173-1.187 2.762-2.21 4.418-2.209h12.517c3.226.007 5.606 2.624 5.891 5.89.285 3.267-1.98 6.043-5.155 6.628l-18.408 7.363z" fill="#F6233E"/><path d="M55.697 60.378l-4.418 22.09-9.572-2.21 4.418-20.616 9.572.736z" fill="#95A5A5"/><path d="M103.557 69.95H80.731c-1.367 0-2.209-.785-2.209-2.209 0-1.423.842-2.945 2.21-2.945h22.825c1.368 0 2.209 1.522 2.209 2.945 0 1.424-.841 2.21-2.209 2.21zm-2.945 10.309H77.786c-1.368 0-2.209-.786-2.209-2.21 0-1.423.841-2.945 2.21-2.945h22.825c1.368 0 2.209 1.522 2.209 2.946 0 1.423-.841 2.209-2.209 2.209zm15.463-10.309h-2.945c-1.356 0-2.209-.785-2.209-2.209 0-1.423.853-2.945 2.209-2.945h2.945c1.356 0 2.209 1.522 2.209 2.945 0 1.424-.853 2.21-2.209 2.21z" fill="#fff"/><path d="M110.921 110.448c-.002 4.921-3.763 8.996-8.836 9.572-5.073.576-9.855-2.577-11.045-7.363l7.363-7.363h10.309c.372.005.371.069.736 0 .917 1.501 1.466 3.412 1.473 5.154z" fill="#464F5D"/><path d="M100.612 115.602a5.154 5.154 0 100-10.308 5.154 5.154 0 000 10.308z" fill="#BDC3C7"/><path d="M35.816 101.612l3.682-17.672c.26-1.322 1.183-2.792 2.209-3.681 1.481-1.334 3.188-1.86 5.154-1.473 1.967.386 3.567 1.89 4.418 3.682.603 1.213 1.01 2.357.736 3.681l-3.681 16.936v.736l-12.518-2.209z" fill="#DA4457"/><path d="M73.368 55.224c-.008 2.843-2.397 5.146-5.154 5.154h-19.88c-.869.008-2.194-.29-2.946-.736-1.977-1.155-2.79-3.627-2.21-5.89.582-2.265 2.883-3.687 5.155-3.682h19.88c2.758.008 5.147 2.31 5.155 5.154z" fill="#E6243D"/><path d="M50.542 109.711c.002 4.898-3.238 9.53-8.1 10.309-4.86.778-9.5-1.976-11.044-6.627-1.543-4.651.046-9.528 4.418-11.781 3.107-1.602 7.318-1.808 10.308 0s4.417 4.618 4.418 8.099z" fill="#464F5D"/><path d="M40.97 115.602a5.154 5.154 0 100-10.309 5.154 5.154 0 000 10.309z" fill="#BDC3C7"/></svg>