<svg width="148" height="148" fill="none" xmlns="http://www.w3.org/2000/svg"><path d="M148 15.463V139.9c.069 2.096-.773 4.361-2.209 5.891-1.436 1.53-3.056 2.142-5.154 2.209H7.363c-2.098-.067-3.718-.679-5.154-2.209S-.069 141.996 0 139.9V15.463h148z" fill="#ECF0F1"/><path d="M148 8.1v12.517H0V8.099C0 3.83 3.135 0 7.363 0h133.274C144.865 0 148 3.83 148 8.1z" fill="#464F5D"/><path d="M10.309 12.517c1.423 0 2.209-.785 2.209-2.209 0-1.423-.786-2.945-2.21-2.945-1.423 0-2.945 1.522-2.945 2.945 0 1.424 1.522 2.21 2.946 2.21z" fill="#E64C3C"/><path d="M20.617 12.517c1.423 0 2.21-.785 2.21-2.209 0-1.423-.787-2.945-2.21-2.945s-2.945 1.522-2.945 2.945c0 1.424 1.522 2.21 2.945 2.21z" fill="#F3D55B"/><path d="M30.926 12.517c1.423 0 2.209-.785 2.209-2.209 0-1.423-.786-2.945-2.21-2.945-1.423 0-2.945 1.522-2.945 2.945 0 1.424 1.522 2.21 2.946 2.21z" fill="#24AE5F"/><path d="M132.537 39.025v25.771c0 1.423-.808 2.209-2.208 2.209H86.886v-27.98c0-1.423.808-2.945 2.209-2.945h41.234c1.4 0 2.208 1.522 2.208 2.945z" fill="#65DDB9"/><path d="M61.851 88.358l11.045-12.517-4.418-3.682c-.704-.558-1.588-1.318-1.473-2.209.116-.89.65-1.113 1.473-1.472L95.722 55.96c.908-.4 2.196.086 2.945.736.75.65 1.006 1.256.736 2.21l-8.1 27.98c-.232.825-.654 1.21-1.472 1.472-.817.263-1.538-.2-2.209-.736l-6.627-5.154-11.78 13.253c-.469.53-.767.715-1.473.737-.707.022-1.71-.237-2.21-.737l-3.68-3.681c-.953-.953-.888-2.669 0-3.682z" fill="#464F5D"/><path d="M67.741 99.403c-1.358-.001-2.719-.506-3.681-1.473l-3.682-3.681c-1.907-1.925-1.777-5.316 0-7.363l8.836-10.309-2.21-1.472c-1.397-1.13-2.44-3.363-2.208-5.155.232-1.792 1.306-2.953 2.945-3.681l27.244-11.781c1.814-.807 4.394-.576 5.891.736 1.496 1.312 2.01 3.229 1.472 5.154l-8.1 27.244c-.466 1.667-1.31 3.152-2.945 3.681-1.634.53-3.814.346-5.154-.736l-4.418-4.418L71.423 97.93c-.938 1.067-2.27 1.426-3.682 1.473zm-3.681-8.836l3.681 3.682 11.781-13.254c.905-1.032 1.88-.861 2.946 0l7.363 5.154 7.363-27.243-27.244 11.78 4.418 3.682c.546.44 1.41 1.506 1.473 2.21.062.702-.276.941-.737 1.472L64.06 90.567z" fill="#BDC3C7"/></svg>