<svg width="124" height="153" fill="none" xmlns="http://www.w3.org/2000/svg"><path d="M110.172 42.257c.389.847.731 1.983.728 2.915v94.714H6.827c-3.589-.011-6.539-2.969-6.55-6.557V6.557C.288 2.968 3.238.011 6.827 0h58.95c.932-.004 2.065.34 2.912.729l41.483 41.528z" fill="#ECF0F1"/><path d="M110.172 42.257H75.239c-3.57-.01-6.54-2.983-6.55-6.557V.729c.71.324 1.631.903 2.183 1.457l37.844 37.885c.553.553 1.131 1.475 1.456 2.186z" fill="#95A5A5"/><path d="M38.121 54.643L25.75 67.028l-5.094-13.114c-.434-1.155-.144-2.77.728-3.643.871-.872 2.485-1.162 3.638-.728l13.1 5.1z" fill="#464F5D"/><path d="M54.861 61.929L32.3 84.514c-.123-.18-.657-.521-.728-.728L25.75 67.757l12.372-12.386L54.133 61.2c.207.071.547.606.728.729z" fill="#F9C795"/><path d="M97.072 102.729l-23.289 22.585-40.755-40.8c-.17-.168-.594-.53-.728-.728L55.589 61.2c.2.133-.17.56 0 .728l41.483 40.801z" fill="#F0C419"/><path d="M107.989 114.386l-22.561 22.585-11.645-11.657 22.561-22.585 11.645 11.657z" fill="#95A5A5"/><path d="M121.817 136.971l-13.828 13.843c-1.21 1.23-2.643 2.186-4.367 2.186-1.724 0-3.157-.956-4.367-2.186l-13.827-13.843 22.561-22.585 13.828 13.843c1.228 1.211 2.183 2.645 2.183 4.371 0 1.726-.955 3.16-2.183 4.371z" fill="#FF5364"/></svg>