<svg width="172" height="159" fill="none" xmlns="http://www.w3.org/2000/svg"><path d="M167.189 79.238c-.023 33.827-22.338 62.638-54.888 71.619-32.55 8.981-67.316-4.477-84.619-33.524-17.303-29.046-13.43-66.225 9.91-90.666 23.34-24.442 60.23-29.752 89.956-13.715 24.321 13.134 39.648 38.604 39.641 66.286z" fill="#ECF0F1"/><path d="M145.844 62.476c-.01 26.445-14.024 50.441-36.592 64-22.569 13.559-50.799 14.055-73.947 1.524-23.771-27.344-24.794-67.594-2.287-96 22.508-28.406 62.734-36.264 94.53-19.048 11.951 13.668 18.323 31.32 18.296 49.524z" fill="#fff"/><path d="M84.094 108.191h-29.73c-2.279 0-3.812-1.518-3.812-3.81.018-4.774 1.885-9.675 5.336-12.952 5.046-4.79 17.797-16.42 22.108-21.334 2.126-2.838 2.287-6.7.762-9.904-1.448-3.1-4.267-5.522-7.623-6.096-3.063-.5-6.773.279-9.148 2.286-2.202 1.88-3.033 4.714-3.05 7.619 0 2.292-2.295 4.572-4.574 4.572-2.278 0-3.811-2.28-3.811-4.572.01-5.331 2.058-10.264 6.098-13.714 4.202-3.594 9.803-5.458 15.247-4.572 6.1 1 11.897 5.02 14.484 10.667 2.911 6.183 2.04 13.769-2.287 19.048-4.381 4.98-15.746 16.052-22.107 22.095-.737.699-1.817 1.383-2.287 2.286h24.394c2.279 0 3.812 2.279 3.812 4.571s-1.533 3.81-3.812 3.81zm36.592-.001c-2.303 0-3.811-1.516-3.811-3.809V87.619H95.529c-1.59 0-2.347-.865-3.049-2.286-.702-1.42-.972-3.318 0-4.571l10.673-13.714v-.762l14.484-19.048c1.077-1.43 2.871-2.089 4.574-1.524 1.703.565 3.049 2.023 3.049 3.81v29.714h8.386c2.303 0 3.812 1.517 3.812 3.81 0 2.292-1.509 4.571-3.812 4.571h-8.386v16.762c0 2.293-2.271 3.809-4.574 3.809zm-16.771-28.952h12.96V62.476l-6.861 9.143c-.048.067-.708-.06-.763 0l-5.336 7.62z" fill="#F29C1F"/><path d="M29.207 41.905c-1.504-.003-2.349-.89-3.05-2.286-.7-1.396-.848-3.268 0-4.571 2.832-4.385 6.338-7.688 9.91-11.429 1.596-1.654 2.999-1.674 4.575 0s1.595 3.68 0 5.333c-3.204 3.359-5.081 7.497-7.623 11.429-.757 1.162-2.47 1.524-3.812 1.524zm48.026-32c-2.13.002-3.598-1.66-3.812-3.81-.214-2.149.963-4.141 3.05-4.571C81.534.49 87.315 0 92.48 0c2.289 0 3.811 2.25 3.811 4.571 0 2.323-1.522 3.81-3.811 3.81-4.61 0-9.204.598-13.722 1.524-.272.053-1.248 0-1.525 0zm67.848 20.571c-1.095-.003-2.271-.762-3.049-1.524-3.285-3.244-6.792-5.86-10.673-8.38-1.938-1.236-2.774-4.18-1.525-6.096 1.25-1.916 3.399-1.997 5.337-.762 4.361 2.83 8.508 6.26 12.197 9.905 1.202 1.175 2.165 3.025 1.525 4.572-.64 1.546-2.122 2.28-3.812 2.285zm16.009 24.381c-1.649 0-3.181-.728-3.812-2.285-1.724-4.269-4.322-8.371-6.861-12.191-1.266-1.903-1.099-4.801.763-6.095 1.862-1.294 4.832-1.141 6.098.762 2.851 4.293 5.685 8.919 7.624 13.714.52 1.285-.006 3.415-.763 4.571-.756 1.156-1.688 1.524-3.049 1.524zm-40.403-40.38c-.54 0-1.029.218-1.525 0-4.172-1.82-9.277-3.69-13.722-4.571-2.213-.432-3.465-2.273-3.049-4.572.415-2.299 2.361-4.24 4.574-3.81 5.003.993 10.549 2.524 15.246 4.572 1.798.773 2.668 2.589 2.287 4.572-.381 1.982-1.866 3.812-3.811 3.809zM49.79 21.333c-1.859-.001-3.272-1.33-3.813-3.047-.54-1.718-.017-3.57 1.525-4.572 4.369-2.834 8.853-5.69 13.722-7.619 2.164-.852 5.98.195 6.861 2.286.882 2.09-.123 5.243-2.287 6.095-4.339 1.72-9.066 3.57-12.96 6.095-.696.448-2.212.768-3.049.762zM169.476 64c-.294-1.458-1.64-2.573-3.05-3.048-1.409-.474-2.696-.221-3.811.762-1.116.983-1.819 2.352-1.525 3.81a68.945 68.945 0 010 27.428c-.87 4.543-2.02 9.45-3.812 13.715a73.248 73.248 0 01-15.246 22.857c-3.299 3.293-6.775 5.824-10.673 8.381-3.82 2.594-7.928 5.096-12.197 6.857-4.278 1.796-9.164 2.944-13.722 3.809a69.06 69.06 0 01-27.444 0c-4.545-.868-8.694-2.019-12.96-3.809-12.963-5.323-24.306-14.205-32.018-25.905-2.595-3.82-5.1-7.922-6.86-12.19-1.797-4.276-2.944-9.159-3.813-13.715-.916-4.541-1.521-9.08-1.524-13.714v-3.81l5.336 6.096c1.38 1.838 4.26 2.903 6.099 1.524 1.839-1.38 2.141-4.257.762-6.096L20.058 60.19c-.819-.995-1.76-1.523-3.049-1.523s-2.992.528-3.812 1.523L1 76.952c-1.379 1.84-1.076 4.716.763 6.096 1.839 1.379 4.719.314 6.098-1.524l4.574-6.096v3.81a76.466 76.466 0 001.525 15.238c.976 5.105 2.564 10.446 4.574 15.238 5.943 14.464 16.688 26.42 29.73 35.048 4.287 2.91 8.172 5.642 12.96 7.619 4.779 2.006 10.157 3.598 15.247 4.571 10.165 2.044 20.328 2.044 30.493 0 5.106-.974 10.454-2.56 15.247-4.571 4.768-1.965 9.454-3.963 13.722-6.857 13.007-8.708 22.917-21.376 28.969-35.81 2.005-4.781 3.596-10.146 4.574-15.238 2.048-10.183 2.048-20.293 0-30.476z" fill="#E64C3C"/></svg>