<svg width="84" height="84" fill="none" xmlns="http://www.w3.org/2000/svg"><path d="M84 44v10l-4 5H63l-3-5V44l6-5c-.24-.242 2.448.661 6 1 4.752.484 10 1 10 1l2 3z" fill="#FF9F00"/><path d="M84 44v10l-4 5h-9V39c5.148.518 11 1 11 1l2 4z" fill="#FF7816"/><path d="M73 3v10c0 1.395-1.588 2-3 2s-2-.605-2-2V8L43 34c-.453.498-1.345 1-2 1s-.546-.502-1-1l-9-8-17 18c-.453.498-.345 1-1 1s-1.546-.502-2-1c-1.008-.946-1.008-2.054 0-3l18-19c.958-.996 3.043-.996 4 0l8 7L65 5h-4c-1.411 0-3-.605-3-2s1.589-3 3-3h9c1.412 0 3 1.605 3 3z" fill="#E63950"/><path d="M24 69v7s-8.52 5-9 5c-.192 0-1.608-.05-3 0H7l-7-5v-7c0-1.415 1.656-3 3-3h18c1.344 0 3 1.585 3 3zm29-3v10l-4 5H34l-5-5V66l4-3h16l4 3zm31 0v9l-3 4H65l-5-4v-9l4-4h16l4 4z" fill="#FF9F00"/><path d="M74 3v10c0 1.393-1.621 1-3 1s-2 .393-2-1V9L44 34c-.443.498-1.36 1-2 1v-6L66 5h-4c-1.379 0-3-.607-3-2 0-1.394 1.621-3 3-3h9c1.379 0 3 1.606 3 3z" fill="#CC2E43"/><path d="M55 65v10l-4 5h-9V62h8l5 3zm24-3l5 4v9l-3 4H71V62h8zm-53 5v6s-8.48 5-9 5c-.208 0-2.492-.047-4 0V64h10c1.456 0 3 1.675 3 3z" fill="#FF7816"/><path d="M84 74v7c0 1.4-1.656 3-3 3H63c-1.344 0-3-1.6-3-3v-7h24zm-31 0v7c0 1.4-1.656 3-3 3H32c-1.344 0-3-1.6-3-3v-7h24zm-29 0v7c0 1.4-1.656 3-3 3H3c-1.344 0-3-1.6-3-3v-7h24z" fill="#FFD400"/><path d="M42 74h13v7c0 1.4-1.544 3-3 3H42V74zm29 0h13v7c0 1.4-1.544 3-3 3H71V74zm-45 0v7c0 1.4-1.544 3-3 3H13V74h13z" fill="#FDBF00"/><path d="M60 55h24v10H60V55zm-7 3v7H29v-7c0-1.4 1.656-3 3-3h18c1.344 0 3 1.6 3 3z" fill="#FFD400"/><path d="M55 58v7H42V55h10c1.456 0 3 1.6 3 3zm16-3h13v10H71V55z" fill="#FDBF00"/><path d="M84 35v10H60V35c0-1.456 1.656-3 3-3h18c1.344 0 3 1.544 3 3z" fill="#FFD400"/><path d="M84 35v10H71V32h10c1.456 0 3 1.544 3 3z" fill="#FDBF00"/></svg>