<svg width="75" height="75" fill="none" xmlns="http://www.w3.org/2000/svg"><g clip-path="url(#clip0)"><path d="M66 64H9c-5.105 0-9-3.842-9-9V21c0-5.158 3.895-9 9-9h57c5.105 0 9 3.842 9 9v34c0 5.158-3.895 9-9 9z" fill="#3C5A6E"/><path d="M67 12H38v52h29c5.173 0 9-3.842 9-9V21c0-5.158-3.827-9-9-9z" fill="#1E354B"/><path d="M64 54H42c-1.217 0-3-1.787-3-3V41c0-1.213 1.783-3 3-3h22c1.216 0 3 1.787 3 3v10c0 1.213-1.783 3-3 3z" fill="#FF3D7D"/><path d="M18 55h-6c-1.271 0-3-.895-3-2s1.729-2 3-2h6c1.271 0 3 .895 3 2s-1.729 2-3 2z" fill="#F0E6E6"/><path d="M18 25h-6c-1.271 0-3-.895-3-2s1.729-2 3-2h6c1.271 0 3 .895 3 2s-1.729 2-3 2z" fill="#5ECBF1"/><path d="M25 44H12c-1.245 0-3-.895-3-2s1.755-2 3-2h13c1.245 0 3 .895 3 2s-1.755 2-3 2zm26-6h4v16h-4V38zm7-17c-1.722 0-3.83.832-5 2-1.17-1.169-3.278-2-5-2-3.606 0-6 3.14-6 7s2.394 7 6 7c1.15 0 3-1.77 3-3s-1.85-1-3-1c-1.311 0-2-1.597-2-3s.689-3 2-3 3 1.597 3 3v3c0 1.23.85 1 2 1s2 .23 2-1v-3c0-1.403 1.689-3 3-3s2 1.597 2 3-.689 3-2 3c-1.15 0-3-.23-3 1s1.85 3 3 3c3.606 0 6-3.14 6-7s-2.394-7-6-7z" fill="#F0E6E6"/><path d="M68 40H41c-1.227 0-3-1.84-3-3v-3c0-1.16 1.773-3 3-3h27c1.227 0 3 1.84 3 3v3c0 1.16-1.773 3-3 3z" fill="#FF6B6B"/><path d="M52 31h4v9h-4v-9z" fill="#FFF7F4"/></g><defs><clipPath id="clip0"><path fill="#fff" d="M0 0h75v75H0z"/></clipPath></defs></svg>