<svg width="85" height="68" fill="none" xmlns="http://www.w3.org/2000/svg"><path d="M27 59.817l1 1.009c1.107 1.102 3.438 2.02 5 2.019h36c-1.994-3.426-1.558-7.066 1-10.093v-1.01H35l-9-8.074c-1.107-1.102-1.438-2.02-3-2.019H11c-3.045.007-5.73 2.014-6 5.047-.269 3.033 2.004 5.513 5 6.056l17 7.065z" fill="#F6233E"/><path d="M61 10.361l4 20.186 9-2.018-4-19.177-9 1.01z" fill="#95A5A5"/><path d="M15 19.445h20c1.305 0 3-.625 3-2.019 0-1.393-1.695-3.028-3-3.028H15c-1.305 0-3 1.635-3 3.028 0 1.394 1.695 2.019 3 2.019zm3 10.093h20c1.305 0 3-.625 3-2.019 0-1.393-1.695-3.027-3-3.027H18c-1.305 0-3 1.634-3 3.027 0 1.394 1.695 2.019 3 2.019zM3 19.445h1c1.289 0 3-.625 3-2.019 0-1.393-1.711-3.028-3-3.028H3c-1.289 0-3 1.635-3 3.028 0 1.394 1.711 2.019 3 2.019z" fill="#F4F4F4"/><path d="M6 58.807c.002 4.4 3.896 8.57 9 9.084 5.104.515 9.803-2.786 11-7.065l-8-7.065H9c-.374.004-.633.062-1 0-.923 1.342-1.993 3.49-2 5.046z" fill="#464F5D"/><path d="M16 62.845c-2.485 0-4-1.53-4-4.038s1.515-5.046 4-5.046c2.485 0 5 2.538 5 5.046 0 2.509-2.515 4.038-5 4.038z" fill="#BDC3C7"/><path d="M80 48.715l-4-15.14c-.224-1.157-.113-2.25-1-3.028-1.28-1.167-3.3-2.356-5-2.018-1.7.337-3.264 2.47-4 4.037-.521 1.061-1.236.86-1 2.018l4 16.15v1.008l11-3.027z" fill="#DA4457"/><path d="M44 4.306c.007 2.504 2.536 5.038 5 5.046h18c.776.007 2.328-.616 3-1.01 1.766-1.017 3.52-2.042 3-4.037-.52-1.994-3.97-4.04-6-4.037H49c-2.464.008-4.993 1.533-5 4.038z" fill="#E6243D"/><path d="M65 56.789c-.002 4.701 2.755 10.355 8 11.102 5.245.747 8.335-2.6 10-7.065 1.665-4.465 1.717-9.949-3-12.111-3.353-1.538-6.773-.727-10 1.009-3.227 1.736-4.998 3.723-5 7.065z" fill="#464F5D"/><path d="M75 62.845c-2.485 0-4-1.53-4-4.038s1.515-5.046 4-5.046c2.485 0 5 2.538 5 5.046 0 2.509-2.515 4.038-5 4.038z" fill="#BDC3C7"/></svg>