<svg width="71" height="75" fill="none" xmlns="http://www.w3.org/2000/svg"><path d="M13 33c-2.808 0-4 2.307-4 5L7 49l2 9c0 2.694 1.192 5 4 5s6-2.307 6-5V38c0-2.694-3.192-5-6-5z" fill="#5F6C75"/><path d="M17 62c-.672.353-2.19 1-3 1-2.685 0-4-2.306-4-5L7 46l3-8c0-2.694 1.315-5 4-5 .81 0 2.328.647 3 1-1.556.812-3 2.118-3 4v20c0 1.882 1.444 3.188 3 4z" fill="#4E5A61"/><path d="M61 72l-22 1c-1.399 0-2.934-1.62-3-3-.07-1.473 1.523-2 3-2h20c1.435 0 3-1.583 3-3l-1-12c0-1.381.603-2.935 2-3 1.493-.07 3 1.542 3 3v15c0 2.657-2.309 4-5 4z" fill="#E0F5FC"/><path d="M66 67v2c0 2.595-2.305 4-5 4H39c-1.402 0-2.934-1.652-3-3-.027-.55.71-.575 1-1 .44.84.964 1 2 1h22c2.278 0 4.462-.968 5-3z" fill="#D3EFFD"/><path d="M66 53c0-.922-.334-2.55-1-3-.053-.036-.945.031-1 0-.015-.008.015.008 0 0-.048-.026.05.022 0 0-.02-.009.02.008 0 0-.054-.022.055.017 0 0-.013-.004.013.004 0 0-.067-.02.07.013 0 0-.02-.004-.98.003-1 0-.053-.008.053.004 0 0-.023-.002.023.001 0 0-.073-.004.075-.004 0 0-1.255.064-1 1.62-1 3v12c0 1.415-1.711 3-3 3h3c1.288 0 1-1.586 1-3v-4c0-.283.769.124 1 0l2-1v-7z" fill="#D3EFFD"/><path d="M69 39l-2-1c-.281-.14-.003.317 0 0 .018-1.904-.012-4.734 0-5 0-4.787-1.119-8.927-3-13C59.032 9.245 46.453 2.07 34 2 34 2 4.904 16.623 5 34v4c0 .364.317-.172 0 0-.614.334-.844.9-1 1-1.114.553-3 1.743-3 3v10c0 1.257.886 2.447 2 3l6 4V34C9 19.478 21.675 7.045 36 7c14.325.045 25 12.478 25 27v25l7-4c1.114-.553 2-1.743 2-3h1V41c0-1.257-.886-1.447-2-2z" fill="#5F6C75"/><path d="M57 33c2.681 0 3 2.307 3 5l2 11-2 9c0 2.694-.319 5-3 5s-6-2.307-6-5V38c0-2.694 3.319-5 6-5z" fill="#5F6C75"/><path d="M57 61c.343.35.564.769 1 1-.662.353-2.203 1-3 1-1.322 0-1.133-1.118-2-2-.867-.882-2-1.654-2-3V38c0-2.694 1.355-5 4-5 .797 0 2.338.647 3 1-1.533.812-3 2.118-3 4v20c0 1.346 1.133 2.118 2 3z" fill="#4E5A61"/><path d="M64 21C59.022 10.315 48.478 2.07 36 2 23.72 1.862 12.172 9.417 7 20c-2.063 4.22-3.028 9.078-3 14v4c0 .362.318-.17 0 0-.614.331-1.845.901-2 1-1.117.55-2 1.752-2 3v10c0 1.25.883 2.45 2 3l8 4v-4l-6-2c-.246-.12-1-.724-1-1V42c.037-.868 1.363-1.525 2-2 1.142-.616 2-.697 2-2v-4c-.025-3.82.523-7.455 2-11 .163-.392.702-1.301 1-1 .534.54 1.383.754 2 1 3.86-9.561 13.141-15.966 24-16 10.905.034 19.172 6.374 23 16 1.212 3.045 2 7.533 2 11v25l8-4c1.117-.55 2-1.75 2-3l-6 2c-.595.306-1-.328-1-1V34c0-3.927-.591-7.582-2-11-.096-.233-.185-.829 0-1l2-1z" fill="#4E5A61"/><path d="M13 19c.666.863 1.497 1.031 2 0 1.136-2.328 3.412-2.187 5-4 3.907-4.46 9.394-7 15-7 5.346 0 12.169 1.904 16 6 1.859 1.986 3.722 2.34 5 5 .493 1.026 1.314.82 2 0l4-2c.535-.64 1.405-1.216 1-2-2.079-4.028-5.938-7.222-9-10C49.13.58 41.387 0 35 0c-7.316 0-14.787 1.348-20 7-2.095 2.27-5.447 4.08-7 7-.405.762.495 2.346 1 3l4 2z" fill="#F84164"/><path d="M60 20h-1c-.756.885-2.458 1.107-3 0-1.407-2.87-1.954-2.856-4-5-4.217-4.42-10.116-5-16-5-6.17 0-11.7.186-16 5-1.749 1.959-2.75 2.488-4 5-.553 1.113-2.267.93-3 0l-1-1c1.62-2.67 4.693-4.536 6-6 5.003-5.6 11.34-7 18-7 6.337 0 12.11.875 17 6 1.735 1.82 5.402 5.173 7 8z" fill="#F73157"/><path d="M43 49c-.003 0 .003 0 0 0-.504-.005-1.004-.41-1-1 .007-.971-.007-1.866 0-3h-6c-.323 0-.836-.674-1-1a1.101 1.101 0 010-1c.694-1.472 6.304-10 7-11 .748-1.075.695-1.11 1-1 .647.235 1.934 2.075 2 3 .037.523.019 4.412 0 8h1c.504 0 1 .41 1 1 0 .59-.496 2-1 2h-1c-.01 1.594.003 2.62 0 3-.004.587-1.5 1-2 1zm-4-7h3c.017-3.269.015-6.827 0-8-.659 1.192-1.63 5.118-3 8zm-10 7c-2.881 0-3.85.05-4 0-.38-.126-.886-.631-1-1-.202-.652.082-1.807 1-3 .772-1.004 1.593-1.586 4-5 .744-1.055.797-3.178 1-4-.035-1.48.5-2-1-2-1.316 0-2.747-.28-3 1-.12.601-1.395 1.118-2 1-.606-.118-1.12-.399-1-1 .458-2.317 3.618-4 6-4 2.754 0 4 2.266 4 5 0 .047.006-.047 0 0v1c-.005.037.008-.036 0 0-.26 1.112-1.076 1.69-2 3-2.102 2.98-2.162 4.905-3 6 1.493.006 2.964.026 5 0 .623-.004.992 1.387 1 2 .007.613-.383.992-1 1-2.147.027-2.858 0-4 0z" fill="#DF2E50"/><path d="M43 75h-7c-.876 0-2-1.199-2-2v-4c0-.801 1.124-1 2-1l1-1h3v1-1h4c.876 0 2 1.199 2 2v3l-1 1c0 .801-1.124 2-2 2z" fill="#5F6C75"/><path d="M46 72v1c0 .757-1.135 2-2 2h-8c-.864 0-2-1.243-2-2v-4c0-.758 1.136-2 2-2h1v4c0 .757 1.136 1 2 1h7z" fill="#4E5A61"/><path d="M37 67h3v8h-3v-8z" fill="#4E5A61"/></svg>